<svg width="14" height="14" viewBox="0 0 14 14" fill="none" xmlns="http://www.w3.org/2000/svg">
<path d="M11.5678 5.07521L8.92527 2.43271C8.3711 1.87855 7.60694 1.58104 6.82527 1.62188L3.9086 1.76188C2.74194 1.81438 1.81444 2.74188 1.7561 3.90271L1.6161 6.81938C1.5811 7.60104 1.87277 8.36521 2.42694 8.91938L5.06944 11.5619C6.15444 12.6469 7.9161 12.6469 9.00694 11.5619L11.5678 9.00104C12.6586 7.92188 12.6586 6.16021 11.5678 5.07521ZM5.54194 7.22188C4.61444 7.22188 3.86194 6.46938 3.86194 5.54188C3.86194 4.61438 4.61444 3.86188 5.54194 3.86188C6.46944 3.86188 7.22194 4.61438 7.22194 5.54188C7.22194 6.46938 6.46944 7.22188 5.54194 7.22188Z" fill="#292D32"/>
</svg>
