<svg width="190" height="36" viewBox="0 0 190 36" fill="none" xmlns="http://www.w3.org/2000/svg">
<rect width="30" height="36" rx="5" fill="#212121"/>
<rect x="32" width="30" height="36" rx="5" fill="#212121"/>
<rect x="64" width="30" height="36" rx="5" fill="#212121"/>
<rect x="96" width="30" height="36" rx="5" fill="#212121"/>
<rect x="128" width="30" height="36" rx="5" fill="#212121"/>
<rect x="160" width="30" height="36" rx="5" fill="#212121"/>
<path d="M18.206 18.29H20.01V24.67C19.7313 24.7727 19.284 24.8973 18.668 25.044C18.052 25.2053 17.326 25.286 16.49 25.286C15.6687 25.286 14.9207 25.132 14.246 24.824C13.5713 24.5013 12.992 24.0393 12.508 23.438C12.0387 22.8367 11.672 22.096 11.408 21.216C11.144 20.3213 11.012 19.3093 11.012 18.18C11.012 17.036 11.1587 16.024 11.452 15.144C11.7453 14.264 12.1413 13.5233 12.64 12.922C13.1533 12.3207 13.7473 11.866 14.422 11.558C15.0967 11.2353 15.8227 11.074 16.6 11.074C17.0987 11.074 17.5387 11.1107 17.92 11.184C18.3013 11.2573 18.624 11.3453 18.888 11.448C19.1667 11.5507 19.394 11.6607 19.57 11.778C19.746 11.8807 19.878 11.9613 19.966 12.02L19.372 13.538C19.0347 13.274 18.6313 13.0613 18.162 12.9C17.7073 12.724 17.2233 12.636 16.71 12.636C16.1527 12.636 15.632 12.768 15.148 13.032C14.6787 13.296 14.2753 13.67 13.938 14.154C13.6007 14.638 13.3367 15.2247 13.146 15.914C12.9553 16.5887 12.86 17.344 12.86 18.18C12.86 19.0013 12.9407 19.7493 13.102 20.424C13.278 21.0987 13.5273 21.678 13.85 22.162C14.1727 22.646 14.5687 23.0273 15.038 23.306C15.522 23.57 16.072 23.702 16.688 23.702C17.1133 23.702 17.4433 23.6727 17.678 23.614C17.9127 23.5553 18.0887 23.4967 18.206 23.438V18.29Z" fill="#F6D456"/>
<path d="M42.638 18.18C42.638 16.9627 42.7553 15.9067 42.99 15.012C43.2247 14.1173 43.5547 13.384 43.98 12.812C44.4053 12.2253 44.9113 11.7927 45.498 11.514C46.0993 11.2207 46.7667 11.074 47.5 11.074C48.2187 11.074 48.8787 11.2207 49.48 11.514C50.0813 11.7927 50.5947 12.2253 51.02 12.812C51.4453 13.384 51.7753 14.1173 52.01 15.012C52.2593 15.9067 52.384 16.9627 52.384 18.18C52.384 19.3973 52.2593 20.4533 52.01 21.348C51.7753 22.2427 51.4453 22.9833 51.02 23.57C50.5947 24.1567 50.0813 24.5893 49.48 24.868C48.8787 25.1467 48.2187 25.286 47.5 25.286C46.7667 25.286 46.0993 25.1467 45.498 24.868C44.9113 24.5893 44.4053 24.1567 43.98 23.57C43.5547 22.9833 43.2247 22.2427 42.99 21.348C42.7553 20.4533 42.638 19.3973 42.638 18.18ZM44.486 18.18C44.486 19.9693 44.728 21.3407 45.212 22.294C45.696 23.2473 46.444 23.724 47.456 23.724C48.4827 23.724 49.2527 23.2473 49.766 22.294C50.2793 21.3407 50.536 19.9693 50.536 18.18C50.536 16.3907 50.2793 15.0193 49.766 14.066C49.2527 13.1127 48.4827 12.636 47.456 12.636C46.444 12.636 45.696 13.1127 45.212 14.066C44.728 15.0193 44.486 16.3907 44.486 18.18Z" fill="#F6D456"/>
<path d="M83.482 15.54C83.482 16.376 83.262 17.1167 82.822 17.762C82.382 18.3927 81.788 18.884 81.04 19.236C81.26 19.588 81.502 19.9913 81.766 20.446C82.0447 20.886 82.3233 21.3627 82.602 21.876C82.8807 22.3747 83.152 22.8953 83.416 23.438C83.6947 23.966 83.9513 24.4867 84.186 25H82.25C81.81 23.944 81.326 22.932 80.798 21.964C80.2847 20.996 79.786 20.2113 79.302 19.61C79.214 19.6247 79.082 19.632 78.906 19.632C78.7447 19.632 78.6347 19.632 78.576 19.632H77.036V25H75.21V11.58C75.43 11.5213 75.6793 11.47 75.958 11.426C76.2513 11.382 76.5447 11.3527 76.838 11.338C77.146 11.3087 77.4467 11.2867 77.74 11.272C78.0333 11.2573 78.2973 11.25 78.532 11.25C80.1747 11.25 81.4067 11.6093 82.228 12.328C83.064 13.0467 83.482 14.1173 83.482 15.54ZM78.686 12.812C78.3487 12.812 78.0187 12.8193 77.696 12.834C77.388 12.834 77.168 12.8487 77.036 12.878V18.136H78.202C78.73 18.136 79.1993 18.0993 79.61 18.026C80.0353 17.9527 80.3947 17.8207 80.688 17.63C80.996 17.4247 81.2307 17.1533 81.392 16.816C81.5533 16.464 81.634 16.0093 81.634 15.452C81.634 14.924 81.5533 14.4913 81.392 14.154C81.2307 13.8167 81.018 13.5527 80.754 13.362C80.49 13.1567 80.1747 13.0173 79.808 12.944C79.456 12.856 79.082 12.812 78.686 12.812Z" fill="#F6D456"/>
<path d="M116.12 18.18C116.12 19.4413 115.959 20.512 115.636 21.392C115.328 22.272 114.895 22.9907 114.338 23.548C113.795 24.0907 113.143 24.4867 112.38 24.736C111.632 24.9853 110.818 25.11 109.938 25.11C109.029 25.11 108.112 25 107.188 24.78V11.58C108.112 11.36 109.029 11.25 109.938 11.25C110.818 11.25 111.632 11.3747 112.38 11.624C113.143 11.8733 113.795 12.2767 114.338 12.834C114.895 13.3913 115.328 14.11 115.636 14.99C115.959 15.87 116.12 16.9333 116.12 18.18ZM108.992 23.482C109.359 23.526 109.733 23.548 110.114 23.548C110.774 23.548 111.361 23.4527 111.874 23.262C112.387 23.0567 112.82 22.7413 113.172 22.316C113.524 21.876 113.795 21.3187 113.986 20.644C114.177 19.9547 114.272 19.1333 114.272 18.18C114.272 16.332 113.913 14.9753 113.194 14.11C112.49 13.2447 111.441 12.812 110.048 12.812C109.857 12.812 109.667 12.8193 109.476 12.834C109.3 12.834 109.139 12.8487 108.992 12.878V23.482Z" fill="#F6D456"/>
<path d="M140.002 25V11.382H147.636V12.922H141.806V17.102H146.91V18.642H141.806V23.46H148.12V25H140.002Z" fill="#F6D456"/>
<path d="M178.448 25C178.287 24.604 178.096 24.1567 177.876 23.658C177.656 23.1593 177.421 22.646 177.172 22.118C176.923 21.59 176.651 21.062 176.358 20.534C176.079 20.006 175.786 19.5147 175.478 19.06C174.965 19.8813 174.451 20.8273 173.938 21.898C173.425 22.954 172.948 23.988 172.508 25H170.55C171.034 23.9147 171.599 22.7413 172.244 21.48C172.889 20.204 173.579 18.9793 174.312 17.806L170.77 11.382H172.772L175.434 16.596L178.294 11.382H180.252L176.644 17.74C177.348 18.884 178.03 20.072 178.69 21.304C179.35 22.536 179.937 23.768 180.45 25H178.448Z" fill="#F6D456"/>
</svg>
