<svg width="243" height="44" viewBox="0 0 243 44" fill="none" xmlns="http://www.w3.org/2000/svg">
<rect width="38" height="44" rx="5" fill="#212121"/>
<rect x="41" width="38" height="44" rx="5" fill="#212121"/>
<rect x="82" width="38" height="44" rx="5" fill="#212121"/>
<rect x="123" width="38" height="44" rx="5" fill="#212121"/>
<rect x="164" width="38" height="44" rx="5" fill="#212121"/>
<rect x="205" width="38" height="44" rx="5" fill="#212121"/>
<path d="M23.92 22.8H27.2V34.4C26.6933 34.5867 25.88 34.8133 24.76 35.08C23.64 35.3733 22.32 35.52 20.8 35.52C19.3067 35.52 17.9467 35.24 16.72 34.68C15.4933 34.0933 14.44 33.2533 13.56 32.16C12.7067 31.0667 12.04 29.72 11.56 28.12C11.08 26.4933 10.84 24.6533 10.84 22.6C10.84 20.52 11.1067 18.68 11.64 17.08C12.1733 15.48 12.8933 14.1333 13.8 13.04C14.7333 11.9467 15.8133 11.12 17.04 10.56C18.2667 9.97333 19.5867 9.68 21 9.68C21.9067 9.68 22.7067 9.74667 23.4 9.88C24.0933 10.0133 24.68 10.1733 25.16 10.36C25.6667 10.5467 26.08 10.7467 26.4 10.96C26.72 11.1467 26.96 11.2933 27.12 11.4L26.04 14.16C25.4267 13.68 24.6933 13.2933 23.84 13C23.0133 12.68 22.1333 12.52 21.2 12.52C20.1867 12.52 19.24 12.76 18.36 13.24C17.5067 13.72 16.7733 14.4 16.16 15.28C15.5467 16.16 15.0667 17.2267 14.72 18.48C14.3733 19.7067 14.2 21.08 14.2 22.6C14.2 24.0933 14.3467 25.4533 14.64 26.68C14.96 27.9067 15.4133 28.96 16 29.84C16.5867 30.72 17.3067 31.4133 18.16 31.92C19.04 32.4 20.04 32.64 21.16 32.64C21.9333 32.64 22.5333 32.5867 22.96 32.48C23.3867 32.3733 23.7067 32.2667 23.92 32.16V22.8Z" fill="#ECECEC"/>
<path d="M51.16 22.6C51.16 20.3867 51.3733 18.4667 51.8 16.84C52.2267 15.2133 52.8267 13.88 53.6 12.84C54.3733 11.7733 55.2933 10.9867 56.36 10.48C57.4533 9.94667 58.6667 9.68 60 9.68C61.3067 9.68 62.5067 9.94667 63.6 10.48C64.6933 10.9867 65.6267 11.7733 66.4 12.84C67.1733 13.88 67.7733 15.2133 68.2 16.84C68.6533 18.4667 68.88 20.3867 68.88 22.6C68.88 24.8133 68.6533 26.7333 68.2 28.36C67.7733 29.9867 67.1733 31.3333 66.4 32.4C65.6267 33.4667 64.6933 34.2533 63.6 34.76C62.5067 35.2667 61.3067 35.52 60 35.52C58.6667 35.52 57.4533 35.2667 56.36 34.76C55.2933 34.2533 54.3733 33.4667 53.6 32.4C52.8267 31.3333 52.2267 29.9867 51.8 28.36C51.3733 26.7333 51.16 24.8133 51.16 22.6ZM54.52 22.6C54.52 25.8533 54.96 28.3467 55.84 30.08C56.72 31.8133 58.08 32.68 59.92 32.68C61.7867 32.68 63.1867 31.8133 64.12 30.08C65.0533 28.3467 65.52 25.8533 65.52 22.6C65.52 19.3467 65.0533 16.8533 64.12 15.12C63.1867 13.3867 61.7867 12.52 59.92 12.52C58.08 12.52 56.72 13.3867 55.84 15.12C54.96 16.8533 54.52 19.3467 54.52 22.6Z" fill="#ECECEC"/>
<path d="M108.24 17.8C108.24 19.32 107.84 20.6667 107.04 21.84C106.24 22.9867 105.16 23.88 103.8 24.52C104.2 25.16 104.64 25.8933 105.12 26.72C105.627 27.52 106.133 28.3867 106.64 29.32C107.147 30.2267 107.64 31.1733 108.12 32.16C108.627 33.12 109.093 34.0667 109.52 35H106C105.2 33.08 104.32 31.24 103.36 29.48C102.427 27.72 101.52 26.2933 100.64 25.2C100.48 25.2267 100.24 25.24 99.92 25.24C99.6267 25.24 99.4267 25.24 99.32 25.24H96.52V35H93.2V10.6C93.6 10.4933 94.0533 10.4 94.56 10.32C95.0933 10.24 95.6267 10.1867 96.16 10.16C96.72 10.1067 97.2667 10.0667 97.8 10.04C98.3333 10.0133 98.8133 10 99.24 10C102.227 10 104.467 10.6533 105.96 11.96C107.48 13.2667 108.24 15.2133 108.24 17.8ZM99.52 12.84C98.9067 12.84 98.3067 12.8533 97.72 12.88C97.16 12.88 96.76 12.9067 96.52 12.96V22.52H98.64C99.6 22.52 100.453 22.4533 101.2 22.32C101.973 22.1867 102.627 21.9467 103.16 21.6C103.72 21.2267 104.147 20.7333 104.44 20.12C104.733 19.48 104.88 18.6533 104.88 17.64C104.88 16.68 104.733 15.8933 104.44 15.28C104.147 14.6667 103.76 14.1867 103.28 13.84C102.8 13.4667 102.227 13.2133 101.56 13.08C100.92 12.92 100.24 12.84 99.52 12.84Z" fill="#ECECEC"/>
<path d="M150.4 22.6C150.4 24.8933 150.107 26.84 149.52 28.44C148.96 30.04 148.173 31.3467 147.16 32.36C146.173 33.3467 144.987 34.0667 143.6 34.52C142.24 34.9733 140.76 35.2 139.16 35.2C137.507 35.2 135.84 35 134.16 34.6V10.6C135.84 10.2 137.507 10 139.16 10C140.76 10 142.24 10.2267 143.6 10.68C144.987 11.1333 146.173 11.8667 147.16 12.88C148.173 13.8933 148.96 15.2 149.52 16.8C150.107 18.4 150.4 20.3333 150.4 22.6ZM137.44 32.24C138.107 32.32 138.787 32.36 139.48 32.36C140.68 32.36 141.747 32.1867 142.68 31.84C143.613 31.4667 144.4 30.8933 145.04 30.12C145.68 29.32 146.173 28.3067 146.52 27.08C146.867 25.8267 147.04 24.3333 147.04 22.6C147.04 19.24 146.387 16.7733 145.08 15.2C143.8 13.6267 141.893 12.84 139.36 12.84C139.013 12.84 138.667 12.8533 138.32 12.88C138 12.88 137.707 12.9067 137.44 12.96V32.24Z" fill="#ECECEC"/>
<path d="M176.64 35V10.24H190.52V13.04H179.92V20.64H189.2V23.44H179.92V32.2H191.4V35H176.64Z" fill="#ECECEC"/>
<path d="M229.36 35C229.067 34.28 228.72 33.4667 228.32 32.56C227.92 31.6533 227.493 30.72 227.04 29.76C226.587 28.8 226.093 27.84 225.56 26.88C225.053 25.92 224.52 25.0267 223.96 24.2C223.027 25.6933 222.093 27.4133 221.16 29.36C220.227 31.28 219.36 33.16 218.56 35H215C215.88 33.0267 216.907 30.8933 218.08 28.6C219.253 26.28 220.507 24.0533 221.84 21.92L215.4 10.24H219.04L223.88 19.72L229.08 10.24H232.64L226.08 21.8C227.36 23.88 228.6 26.04 229.8 28.28C231 30.52 232.067 32.76 233 35H229.36Z" fill="#ECECEC"/>
</svg>
