<svg width="16" height="16" viewBox="0 0 16 16" fill="none" xmlns="http://www.w3.org/2000/svg">
<g id="vuesax/bold/3d-square">
<g id="3d-square">
<path id="Vector" d="M10.7935 1.55339H5.20683C2.78016 1.55339 1.3335 3.00672 1.3335 5.43339V11.0134C1.3335 13.4401 2.78016 14.8867 5.20683 14.8867H10.7868C13.2135 14.8867 14.6602 13.4401 14.6602 11.0134V5.43339C14.6668 3.00672 13.2202 1.55339 10.7935 1.55339ZM7.7135 11.4134C7.7135 11.6134 7.6135 11.7934 7.44016 11.9001C7.34683 11.9601 7.24683 11.9867 7.14016 11.9867C7.0535 11.9867 6.96683 11.9667 6.88016 11.9267L4.54683 10.7601C4.2135 10.5867 4.00016 10.2467 4.00016 9.86672V7.66006C4.00016 7.46006 4.10016 7.28006 4.2735 7.17339C4.44683 7.06672 4.6535 7.06006 4.8335 7.14672L7.16683 8.31339C7.50683 8.48672 7.72016 8.82672 7.72016 9.20672V11.4134H7.7135ZM7.5735 7.84672L5.06683 6.49339C4.88683 6.39339 4.7735 6.20006 4.7735 5.98006C4.7735 5.76672 4.88683 5.56672 5.06683 5.46672L7.5735 4.11339C7.84016 3.97339 8.1535 3.97339 8.42016 4.11339L10.9268 5.46672C11.1068 5.56672 11.2202 5.76006 11.2202 5.98006C11.2202 6.20006 11.1068 6.39339 10.9268 6.49339L8.42016 7.84672C8.28683 7.92006 8.14016 7.95339 7.9935 7.95339C7.84683 7.95339 7.70683 7.92006 7.5735 7.84672ZM12.0002 9.86672C12.0002 10.2467 11.7868 10.5934 11.4468 10.7601L9.1135 11.9267C9.0335 11.9667 8.94683 11.9867 8.8535 11.9867C8.74683 11.9867 8.64683 11.9601 8.5535 11.9001C8.38016 11.7934 8.28016 11.6134 8.28016 11.4134V9.20672C8.28016 8.82672 8.4935 8.48006 8.8335 8.31339L11.1668 7.14672C11.3468 7.06006 11.5535 7.06672 11.7268 7.17339C11.9002 7.28006 12.0002 7.46006 12.0002 7.66006V9.86672Z" fill="#212121"/>
</g>
</g>
</svg>
