<svg width="16" height="16" viewBox="0 0 16 16" fill="none" xmlns="http://www.w3.org/2000/svg">
<g id="vuesax/bold/note">
<g id="note">
<path id="Vector" d="M5.52686 4.19333C5.24686 4.19333 5.02686 3.96666 5.02686 3.69333V1.83333C5.02686 1.55999 5.24686 1.33333 5.52686 1.33333C5.80686 1.33333 6.02686 1.55999 6.02686 1.83333V3.68666C6.02686 3.96666 5.80686 4.19333 5.52686 4.19333Z" fill="#212121"/>
<path id="Vector_2" d="M10.4731 4.19333C10.1931 4.19333 9.97314 3.96666 9.97314 3.69333V1.83333C9.97314 1.55333 10.1998 1.33333 10.4731 1.33333C10.7531 1.33333 10.9731 1.55999 10.9731 1.83333V3.68666C10.9731 3.96666 10.7531 4.19333 10.4731 4.19333Z" fill="#212121"/>
<path id="Vector_3" d="M13.0465 2.99999C12.6065 2.67333 11.9732 2.98666 11.9732 3.53999V3.60666C11.9732 4.38666 11.4132 5.10666 10.6332 5.18666C9.73317 5.27999 8.97317 4.57333 8.97317 3.69333V2.99999C8.97317 2.63333 8.67317 2.33333 8.3065 2.33333H7.69317C7.3265 2.33333 7.0265 2.63333 7.0265 2.99999V3.69333C7.0265 4.21999 6.75317 4.68666 6.33984 4.94666C6.27984 4.98666 6.21317 5.01999 6.1465 5.05333C6.0865 5.08666 6.01984 5.11333 5.9465 5.13333C5.8665 5.15999 5.77984 5.17999 5.6865 5.18666C5.57984 5.19999 5.47317 5.19999 5.3665 5.18666C5.27317 5.17999 5.1865 5.15999 5.1065 5.13333C5.03984 5.11333 4.97317 5.08666 4.9065 5.05333C4.83984 5.01999 4.77317 4.98666 4.71317 4.94666C4.29317 4.65333 4.0265 4.14666 4.0265 3.60666V3.53999C4.0265 3.02666 3.47984 2.71999 3.0465 2.93999C3.03984 2.94666 3.03317 2.94666 3.0265 2.95333C2.99984 2.96666 2.97984 2.97999 2.95317 2.99999C2.93317 3.01999 2.9065 3.03333 2.8865 3.05333C2.69984 3.19999 2.53317 3.36666 2.39317 3.54666C2.31984 3.62666 2.25984 3.71333 2.2065 3.79999C2.19984 3.80666 2.19317 3.81333 2.1865 3.82666C2.1265 3.91333 2.07317 4.01333 2.0265 4.10666C2.01317 4.11999 2.0065 4.12666 2.0065 4.13999C1.9665 4.21999 1.9265 4.29999 1.89984 4.38666C1.87984 4.41999 1.87317 4.44666 1.85984 4.47999C1.81984 4.57999 1.79317 4.67999 1.7665 4.77999C1.73984 4.87333 1.71984 4.97333 1.7065 5.07333C1.69317 5.14666 1.6865 5.21999 1.67984 5.29999C1.67317 5.39333 1.6665 5.48666 1.6665 5.57999V11.42C1.6665 13.2133 3.11984 14.6667 4.91317 14.6667H11.0865C12.8798 14.6667 14.3332 13.2133 14.3332 11.42V5.57999C14.3332 4.51999 13.8265 3.59333 13.0465 2.99999ZM7.99984 11.6133H4.9065C4.63317 11.6133 4.4065 11.3867 4.4065 11.1133C4.4065 10.8333 4.63317 10.6067 4.9065 10.6067H7.99984C8.27984 10.6067 8.49984 10.8333 8.49984 11.1133C8.49984 11.3867 8.27984 11.6133 7.99984 11.6133ZM9.85317 9.13999H4.9065C4.63317 9.13999 4.4065 8.91333 4.4065 8.63999C4.4065 8.35999 4.63317 8.13333 4.9065 8.13333H9.85317C10.1332 8.13333 10.3598 8.35999 10.3598 8.63999C10.3598 8.91333 10.1332 9.13999 9.85317 9.13999Z" fill="#212121"/>
</g>
</g>
</svg>
