<svg width="16" height="16" viewBox="0 0 16 16" fill="none" xmlns="http://www.w3.org/2000/svg">
<g id="vuesax/bold/timer">
<g id="timer">
<path id="Vector" d="M11.5932 10.4467L8.89982 8H7.09316L4.39982 10.4467C3.64649 11.1267 3.39982 12.1733 3.76649 13.12C4.13316 14.06 5.02649 14.6667 6.03316 14.6667H9.95982C10.9732 14.6667 11.8598 14.06 12.2265 13.12C12.5932 12.1733 12.3465 11.1267 11.5932 10.4467ZM9.21316 12.0933H6.78649C6.53316 12.0933 6.33316 11.8867 6.33316 11.64C6.33316 11.3933 6.53982 11.1867 6.78649 11.1867H9.21316C9.46649 11.1867 9.66649 11.3933 9.66649 11.64C9.66649 11.8867 9.45982 12.0933 9.21316 12.0933Z" fill="#212121"/>
<path id="Vector_2" d="M12.2336 2.88C11.8669 1.94 10.9736 1.33333 9.96694 1.33333H6.0336C5.02694 1.33333 4.1336 1.94 3.76694 2.88C3.40694 3.82667 3.6536 4.87333 4.40694 5.55333L7.10027 8H8.90694L11.6003 5.55333C12.3469 4.87333 12.5936 3.82667 12.2336 2.88ZM9.2136 4.82H6.78694C6.5336 4.82 6.3336 4.61333 6.3336 4.36667C6.3336 4.12 6.54027 3.91333 6.78694 3.91333H9.2136C9.46694 3.91333 9.66694 4.12 9.66694 4.36667C9.66694 4.61333 9.46027 4.82 9.2136 4.82Z" fill="#212121"/>
</g>
</g>
</svg>
