<svg width="16" height="16" viewBox="0 0 16 16" fill="none" xmlns="http://www.w3.org/2000/svg">
<g id="vuesax/bold/danger">
<g id="danger">
<path id="Vector" d="M14.5057 10.6133L10.239 2.93331C9.66567 1.89998 8.87234 1.33331 7.99901 1.33331C7.12567 1.33331 6.33234 1.89998 5.75901 2.93331L1.49234 10.6133C0.952342 11.5933 0.892342 12.5333 1.32568 13.2733C1.75901 14.0133 2.61234 14.42 3.73234 14.42H12.2657C13.3857 14.42 14.239 14.0133 14.6723 13.2733C15.1057 12.5333 15.0457 11.5866 14.5057 10.6133ZM7.49901 5.99998C7.49901 5.72665 7.72567 5.49998 7.99901 5.49998C8.27234 5.49998 8.49901 5.72665 8.49901 5.99998V9.33331C8.49901 9.60665 8.27234 9.83331 7.99901 9.83331C7.72567 9.83331 7.49901 9.60665 7.49901 9.33331V5.99998ZM8.47234 11.8066C8.43901 11.8333 8.40567 11.86 8.37234 11.8866C8.33234 11.9133 8.29234 11.9333 8.25234 11.9466C8.21234 11.9666 8.17234 11.98 8.12567 11.9866C8.08567 11.9933 8.03901 12 7.99901 12C7.95901 12 7.91234 11.9933 7.86567 11.9866C7.82567 11.98 7.78567 11.9666 7.74567 11.9466C7.70567 11.9333 7.66567 11.9133 7.62567 11.8866C7.59234 11.86 7.55901 11.8333 7.52567 11.8066C7.40567 11.68 7.33234 11.5066 7.33234 11.3333C7.33234 11.16 7.40567 10.9866 7.52567 10.86C7.55901 10.8333 7.59234 10.8066 7.62567 10.78C7.66567 10.7533 7.70567 10.7333 7.74567 10.72C7.78567 10.7 7.82567 10.6866 7.86567 10.68C7.95234 10.66 8.04567 10.66 8.12567 10.68C8.17234 10.6866 8.21234 10.7 8.25234 10.72C8.29234 10.7333 8.33234 10.7533 8.37234 10.78C8.40567 10.8066 8.43901 10.8333 8.47234 10.86C8.59234 10.9866 8.66567 11.16 8.66567 11.3333C8.66567 11.5066 8.59234 11.68 8.47234 11.8066Z" fill="#292D32"/>
</g>
</g>
</svg>
