<svg width="30" height="30" viewBox="0 0 30 30" fill="none" xmlns="http://www.w3.org/2000/svg">
<path d="M21.287 -0.00390625H8.71695C3.25695 -0.00390625 0.00195312 3.25109 0.00195312 8.7111V21.2661C0.00195312 26.7411 3.25695 29.9961 8.71695 29.9961H21.272C26.732 29.9961 29.987 26.7411 29.987 21.2811V8.7111C30.002 3.25109 26.747 -0.00390625 21.287 -0.00390625ZM12.737 22.0761C12.227 22.5861 11.552 22.9311 10.727 23.0361L8.70195 23.2611C7.59195 23.3811 6.64695 22.4361 6.76695 21.3111L6.99195 19.2711C7.18695 17.4561 8.70195 16.3011 10.307 16.2711C10.457 16.2561 10.637 16.2711 10.802 16.2861C11.507 16.3761 12.182 16.7061 12.752 17.2611C13.307 17.8161 13.622 18.4761 13.712 19.1511C13.727 19.3161 13.742 19.4811 13.742 19.6311C13.742 20.5611 13.397 21.4161 12.737 22.0761ZM23.162 8.3211C22.082 11.0211 19.607 14.5611 17.252 16.8711C16.907 14.7411 15.212 13.0611 13.052 12.7611C15.362 10.3911 18.932 7.8861 21.647 6.7911C22.127 6.6111 22.607 6.7461 22.907 7.0461C23.207 7.3761 23.357 7.8411 23.162 8.3211Z" fill="#292D32"/>
</svg>
