<svg width="27" height="27" viewBox="0 0 27 27" fill="none" xmlns="http://www.w3.org/2000/svg">
<g id="vuesax/bold/code">
<g id="code">
<path id="Vector" d="M18.2138 2.25049H8.78625C4.69125 2.25049 2.25 4.69174 2.25 8.78674V18.203C2.25 22.3092 4.69125 24.7505 8.78625 24.7505H18.2025C22.2975 24.7505 24.7388 22.3092 24.7388 18.2142V8.78674C24.75 4.69174 22.3088 2.25049 18.2138 2.25049ZM11.1825 14.9292C10.4175 16.0767 9.36 17.0105 8.1225 17.6292C8.01 17.6855 7.875 17.7192 7.75125 17.7192C7.43625 17.7192 7.14375 17.5505 6.9975 17.258C6.78375 16.8417 6.9525 16.3355 7.38 16.1217C8.35875 15.638 9.19125 14.8955 9.7875 13.9955C9.99 13.6917 9.99 13.3092 9.7875 13.0055C9.18 12.1055 8.3475 11.363 7.38 10.8792C6.9525 10.6767 6.78375 10.1705 6.9975 9.74299C7.2 9.32674 7.70625 9.15799 8.1225 9.37174C9.36 9.99049 10.4175 10.9242 11.1825 12.0717C11.7675 12.938 11.7675 14.063 11.1825 14.9292ZM19.125 17.7192H14.625C14.1637 17.7192 13.7812 17.3367 13.7812 16.8755C13.7812 16.4142 14.1637 16.0317 14.625 16.0317H19.125C19.5863 16.0317 19.9688 16.4142 19.9688 16.8755C19.9688 17.3367 19.5863 17.7192 19.125 17.7192Z" fill="#292D32"/>
</g>
</g>
</svg>
