<svg width="44" height="44" viewBox="0 0 44 44" fill="none" xmlns="http://www.w3.org/2000/svg">
<g id="gallery-add">
<path id="Vector" d="M16.5007 18.3333C18.5257 18.3333 20.1673 16.6917 20.1673 14.6667C20.1673 12.6416 18.5257 11 16.5007 11C14.4756 11 12.834 12.6416 12.834 14.6667C12.834 16.6917 14.4756 18.3333 16.5007 18.3333Z" stroke="#72838C" stroke-linecap="round" stroke-linejoin="round"/>
<path id="Vector_2" d="M23.8327 3.66602H16.4993C7.33268 3.66602 3.66602 7.33268 3.66602 16.4993V27.4993C3.66602 36.666 7.33268 40.3327 16.4993 40.3327H27.4993C36.666 40.3327 40.3327 36.666 40.3327 27.4993V18.3327" stroke="#72838C" stroke-linecap="round" stroke-linejoin="round"/>
<path id="Vector_3" d="M28.875 9.16602H38.9583" stroke="#72838C" stroke-linecap="round"/>
<path id="Vector_4" d="M33.916 14.2083V4.125" stroke="#72838C" stroke-linecap="round"/>
<path id="Vector_5" d="M4.89453 34.7414L13.9329 28.673C15.3812 27.7014 17.4712 27.8114 18.7729 28.9297L19.3779 29.4614C20.8079 30.6897 23.1179 30.6897 24.5479 29.4614L32.1745 22.9164C33.6045 21.688 35.9145 21.688 37.3445 22.9164L40.3329 25.483" stroke="#72838C" stroke-linecap="round" stroke-linejoin="round"/>
</g>
</svg>
