<svg width="46" height="46" viewBox="0 0 46 46" fill="none" xmlns="http://www.w3.org/2000/svg">
<g id="Group 1085">
<rect id="Rectangle 997" width="46" height="46" fill="#ECECEC"/>
<g id="vuesax/linear/gallery">
<g id="gallery">
<path id="Vector" d="M20.4993 31.3332H25.4993C29.666 31.3332 31.3327 29.6665 31.3327 25.4998V20.4998C31.3327 16.3332 29.666 14.6665 25.4993 14.6665H20.4993C16.3327 14.6665 14.666 16.3332 14.666 20.4998V25.4998C14.666 29.6665 16.3327 31.3332 20.4993 31.3332Z" stroke="#292D32" stroke-width="1.5" stroke-linecap="round" stroke-linejoin="round"/>
<path id="Vector_2" d="M20.5007 21.3333C21.4211 21.3333 22.1673 20.5871 22.1673 19.6667C22.1673 18.7462 21.4211 18 20.5007 18C19.5802 18 18.834 18.7462 18.834 19.6667C18.834 20.5871 19.5802 21.3333 20.5007 21.3333Z" stroke="#292D32" stroke-width="1.5" stroke-linecap="round" stroke-linejoin="round"/>
<path id="Vector_3" d="M15.2246 28.7913L19.3329 26.033C19.9913 25.5913 20.9413 25.6413 21.5329 26.1496L21.8079 26.3913C22.4579 26.9496 23.5079 26.9496 24.1579 26.3913L27.6246 23.4163C28.2746 22.858 29.3246 22.858 29.9746 23.4163L31.3329 24.583" stroke="#292D32" stroke-width="1.5" stroke-linecap="round" stroke-linejoin="round"/>
</g>
</g>
</g>
</svg>
