<svg width="30" height="30" viewBox="0 0 30 30" fill="none" xmlns="http://www.w3.org/2000/svg">
<path d="M21.287 -0.00390625H8.71695C3.25695 -0.00390625 0.00195312 3.25109 0.00195312 8.7111V21.2661C0.00195312 26.7411 3.25695 29.9961 8.71695 29.9961H21.272C26.732 29.9961 29.987 26.7411 29.987 21.2811V8.7111C30.002 3.25109 26.747 -0.00390625 21.287 -0.00390625ZM20.642 20.6361C20.552 21.9111 20.447 23.5011 17.567 23.5011H12.437C9.57195 23.5011 9.45195 21.9111 9.36195 20.6361L8.89695 14.6961C8.86695 14.3061 9.00195 13.9311 9.25695 13.6461C9.51195 13.3611 9.88695 13.2111 10.262 13.2111H19.742C20.117 13.2111 20.492 13.3761 20.747 13.6461C21.002 13.9311 21.137 14.3061 21.107 14.6811L20.642 20.6361ZM22.202 11.7261C22.172 11.7261 22.142 11.7261 22.112 11.7261C20.552 11.5761 19.127 11.4711 17.762 11.4111C15.932 11.3211 14.102 11.2911 12.257 11.3661C11.357 11.4111 10.442 11.4711 9.54195 11.5611L7.90695 11.7261C7.87695 11.7261 7.83195 11.7261 7.80195 11.7261C7.27695 11.7261 6.82695 11.3361 6.78195 10.7961C6.72195 10.2411 7.14195 9.7311 7.69695 9.6861L9.33195 9.5211C9.97695 9.4611 10.607 9.4161 11.252 9.3861L11.372 8.6811C11.492 7.9311 11.717 6.4911 13.967 6.4911H16.052C18.317 6.4911 18.542 7.9761 18.647 8.6961L18.767 9.4161C19.892 9.4761 21.047 9.5661 22.307 9.6861C22.877 9.7461 23.282 10.2411 23.237 10.8111C23.177 11.3361 22.727 11.7261 22.202 11.7261Z" fill="#292D32"/>
</svg>
