<svg width="14" height="14" viewBox="0 0 14 14" fill="none" xmlns="http://www.w3.org/2000/svg">
<g id="vuesax/bold/notification">
<g id="notification">
<path id="Vector" d="M10.764 8.27693L10.2512 7.42564C10.1435 7.2359 10.0461 6.87693 10.0461 6.66667V5.36923C10.0461 4.1641 9.33838 3.12308 8.31787 2.6359C8.0512 2.1641 7.55889 1.8718 6.99479 1.8718C6.43582 1.8718 5.93325 2.17436 5.66659 2.65128C4.66659 3.14872 3.97428 4.17949 3.97428 5.36923V6.66667C3.97428 6.87693 3.87684 7.2359 3.76915 7.42052L3.2512 8.27693C3.04607 8.62052 2.99992 9 3.12813 9.34872C3.2512 9.69231 3.54351 9.95898 3.923 10.0872C4.91787 10.4256 5.96402 10.5897 7.01018 10.5897C8.05633 10.5897 9.10248 10.4256 10.0974 10.0923C10.4563 9.97436 10.7333 9.70257 10.8666 9.34872C10.9999 8.99487 10.964 8.60513 10.764 8.27693Z" fill="white"/>
<path id="Vector_2" d="M8.45115 11.1077C8.23576 11.7026 7.66653 12.1282 6.99986 12.1282C6.59474 12.1282 6.19474 11.9641 5.91269 11.6718C5.74858 11.518 5.62551 11.3128 5.55371 11.1026C5.62038 11.1128 5.68704 11.118 5.75884 11.1282C5.87679 11.1436 5.99986 11.159 6.12294 11.1692C6.41525 11.1949 6.71269 11.2103 7.01012 11.2103C7.30243 11.2103 7.59474 11.1949 7.88192 11.1692C7.98961 11.159 8.0973 11.1539 8.19987 11.1385C8.28192 11.1282 8.36397 11.118 8.45115 11.1077Z" fill="white"/>
</g>
</g>
</svg>
