<svg width="40" height="40" viewBox="0 0 40 40" fill="none" xmlns="http://www.w3.org/2000/svg">
<g id="Group 977">
<rect id="Rectangle 1332" width="40" height="40" rx="6" fill="#F7931A" fill-opacity="0.18"/>
<path id="Shape" fill-rule="evenodd" clip-rule="evenodd" d="M28.2034 17.795C28.5565 15.4309 26.7565 14.16 24.2953 13.3122L25.0937 10.1097L23.1438 9.6239L22.3665 12.742C21.8546 12.6143 21.3282 12.4938 20.8052 12.3744L21.5881 9.23581L19.6398 8.75L18.8409 11.9514C18.4167 11.8548 18.0003 11.7593 17.5961 11.6588L17.5983 11.6488L14.91 10.9775L14.3914 13.0596C14.3914 13.0596 15.8377 13.391 15.8072 13.4116C16.5967 13.6087 16.7399 14.1311 16.7155 14.5453L15.8061 18.1936C15.8605 18.2075 15.931 18.2275 16.0087 18.2586L15.8033 18.2075L14.528 23.3182C14.4314 23.5581 14.1865 23.9179 13.6346 23.7813C13.6541 23.8096 12.2177 23.4276 12.2177 23.4276L11.25 25.6596L13.7873 26.2919C14.0738 26.3637 14.3567 26.4375 14.6366 26.5106C14.8178 26.5578 14.9977 26.6048 15.1765 26.6506L14.3697 29.8903L16.3169 30.3761L17.1164 27.1714C17.6477 27.3158 18.1641 27.449 18.6693 27.5745L17.8731 30.7642L19.8225 31.25L20.6292 28.017C23.9533 28.646 26.4534 28.3923 27.5044 25.3864C28.3522 22.9657 27.4628 21.5693 25.7138 20.6582C26.9875 20.3634 27.9469 19.5256 28.2029 17.795H28.2034ZM23.7482 24.0402C23.1948 26.262 19.7164 25.3427 18.1263 24.9224L18.1263 24.9224C17.9839 24.8848 17.8567 24.8512 17.748 24.8242L18.8185 20.5329C18.9513 20.5661 19.1135 20.6025 19.2973 20.6437L19.2973 20.6437C20.9424 21.0129 24.3136 21.7694 23.7488 24.0402H23.7482ZM19.6289 18.6517C20.9557 19.0056 23.8478 19.7772 24.3516 17.7589C24.8667 15.6941 22.0544 15.0718 20.681 14.7678C20.5266 14.7336 20.3904 14.7035 20.2791 14.6758L19.3086 18.5678C19.4004 18.5907 19.5082 18.6195 19.6289 18.6517Z" fill="#F7931A"/>
</g>
</svg>
