<svg width="12" height="12" viewBox="0 0 12 12" fill="none" xmlns="http://www.w3.org/2000/svg">
<g id="vuesax/bold/celo-(celo)">
<g id="celo-(celo)">
<path id="Vector" d="M4.5 11C6.433 11 8 9.433 8 7.5C8 5.567 6.433 4 4.5 4C2.567 4 1 5.567 1 7.5C1 9.433 2.567 11 4.5 11Z" fill="#212121"/>
<path id="Vector_2" d="M10.9999 4.5C10.9999 5.87 10.2149 7.055 9.06993 7.625C8.91493 7.705 8.73992 7.58 8.72492 7.41C8.55492 5.185 6.79991 3.445 4.58991 3.275C4.41491 3.26 4.29492 3.085 4.37492 2.93C4.94492 1.785 6.12992 1 7.49992 1C9.43492 1 10.9999 2.565 10.9999 4.5Z" fill="#212121"/>
</g>
</g>
</svg>
