<svg width="40" height="40" viewBox="0 0 40 40" fill="none" xmlns="http://www.w3.org/2000/svg">
<g id="Group 976">
<rect id="Rectangle 1333" width="40" height="40" rx="6" fill="#212121" fill-opacity="0.1"/>
<g id="euro-currency-symbol">
<path id="Shape" d="M29.2014 31.2581L28.5798 28.4351C28.5445 28.2691 28.4557 28.1448 28.3133 28.0623C28.1594 27.9792 28.0056 27.9677 27.8519 28.0269L27.7629 28.0623L27.5496 28.1154C27.4548 28.1388 27.3453 28.1657 27.2211 28.1952C27.0967 28.2248 26.952 28.2542 26.786 28.284C26.6209 28.3136 26.4455 28.3404 26.2624 28.364C26.079 28.3872 25.8811 28.4083 25.6678 28.4262C25.4545 28.4436 25.2417 28.4526 25.0284 28.4526C23.525 28.4526 22.1725 28.0473 20.9711 27.2364C19.7696 26.4253 18.8847 25.3274 18.3166 23.9427H25.1879C25.3184 23.9427 25.4367 23.8984 25.5429 23.8094C25.6498 23.7209 25.7149 23.6115 25.7381 23.4808L26.1642 21.4921C26.1999 21.3151 26.1642 21.1551 26.058 21.0129C25.9397 20.8707 25.7913 20.7996 25.614 20.7996H17.4645C17.429 19.9947 17.429 19.3733 17.4645 18.9352H26.1293C26.4492 18.9352 26.6384 18.7815 26.6975 18.4737L27.1237 16.4495C27.1589 16.2838 27.1181 16.13 26.9993 15.9879C26.8932 15.8458 26.7452 15.7745 26.5558 15.7745H18.2458C18.8377 14.4488 19.7254 13.4071 20.9093 12.6495C22.093 11.8917 23.4306 11.513 24.9221 11.513C24.9696 11.4894 25.1441 11.4954 25.4457 11.5308C25.7475 11.5661 25.9195 11.5811 25.9607 11.5751C26.0015 11.5692 26.1561 11.5871 26.4221 11.6283C26.6886 11.6697 26.8219 11.6905 26.8219 11.6905L27.1326 11.7525C27.2216 11.7704 27.2896 11.785 27.3369 11.797L27.4079 11.8147C27.5617 11.8622 27.7034 11.8473 27.8341 11.7704C27.9644 11.6933 28.0473 11.578 28.0829 11.4242L28.8465 8.60097C28.8818 8.44705 28.8639 8.30501 28.7933 8.17484C28.6867 8.03254 28.5681 7.9438 28.4379 7.90841C27.349 7.6362 26.2003 7.5 24.9932 7.5C22.3413 7.5 19.9712 8.2578 17.8818 9.77278C15.7925 11.2879 14.3512 13.2886 13.558 15.7743H11.8181C11.6523 15.7743 11.5163 15.8275 11.4097 15.934C11.3034 16.0404 11.25 16.1766 11.25 16.3424V18.3666C11.25 18.5323 11.3032 18.6685 11.4097 18.7748C11.5164 18.8815 11.6526 18.9345 11.8181 18.9345H13.0078C12.9721 19.5029 12.9664 20.124 12.9899 20.7991H11.8181C11.6643 20.7991 11.5311 20.8552 11.4187 20.9677C11.3063 21.08 11.25 21.2133 11.25 21.3669V23.3735C11.25 23.5276 11.3063 23.6604 11.4187 23.7732C11.5312 23.8856 11.6643 23.9413 11.8181 23.9413H13.505C14.2507 26.5574 15.6595 28.638 17.731 30.1827C19.8027 31.7279 22.2234 32.5 24.9932 32.5C25.2183 32.5 25.4461 32.4945 25.677 32.4822C25.9083 32.4703 26.1239 32.4524 26.3253 32.429C26.5264 32.4055 26.7248 32.3792 26.9201 32.3494C27.1153 32.3196 27.2929 32.2905 27.4526 32.2604C27.6124 32.231 27.7634 32.2015 27.9053 32.1721C28.0475 32.1421 28.1747 32.1099 28.2873 32.0742C28.3997 32.0391 28.494 32.0122 28.5712 31.9948C28.6483 31.977 28.7104 31.9559 28.7574 31.9327L28.8464 31.9148C28.9767 31.8675 29.0773 31.7816 29.1482 31.6571C29.2193 31.5335 29.2367 31.4001 29.2014 31.2581Z" fill="#212121"/>
</g>
</g>
</svg>
