<svg width="40" height="40" viewBox="0 0 40 40" fill="none" xmlns="http://www.w3.org/2000/svg">
<g id="Group 972">
<rect id="Rectangle 1334" width="40" height="40" rx="6" fill="#1BA27A" fill-opacity="0.18"/>
<g id="Group 2">
<path id="Shape" d="M17.4105 18.3382V13.2287H10.4805V8.75H29.8458V13.2918H22.9157V18.3382H17.4105Z" fill="#1BA27A"/>
<path id="Shape_2" fill-rule="evenodd" clip-rule="evenodd" d="M7.5 18.9062C7.5 17.2031 13.0699 15.8153 20 15.8153C26.93 15.8153 32.5 17.2031 32.5 18.9062C32.5 20.6094 26.93 21.9972 20 21.9972C13.0699 21.9972 7.5 20.6094 7.5 18.9062ZM31.4648 18.9065C31.0114 18.2757 27.2549 16.3202 20.0011 16.3202C12.7472 16.3202 8.99069 18.2126 8.53733 18.9065C8.99069 19.5373 12.7472 20.4835 20.0011 20.4835C27.3197 20.4835 31.0114 19.5373 31.4648 18.9065Z" fill="#1BA27A"/>
<g id="Group">
<path id="Shape_3" d="M22.9111 19.9167V16.3842C22.0044 16.3211 21.0329 16.258 20.0614 16.258C19.1546 16.258 18.3127 16.258 17.4707 16.3211V19.8536C18.2479 19.8536 19.1546 19.9167 20.0614 19.9167C21.0329 19.9798 22.0044 19.9798 22.9111 19.9167Z" fill="#1BA27A"/>
<path id="Shape_4" d="M19.9969 21.998C19.0902 21.998 18.2482 21.998 17.4062 21.9349V31.3339H22.8467V21.8719C21.9399 21.9349 20.9684 21.998 19.9969 21.998Z" fill="#1BA27A"/>
</g>
</g>
</g>
</svg>
