<svg width="18" height="18" viewBox="0 0 18 18" fill="none" xmlns="http://www.w3.org/2000/svg">
<path opacity="0.2" d="M17.73 11.1773C16.5279 15.9988 11.6443 18.9328 6.82228 17.7307C2.00249 16.5287 -0.931787 11.645 0.270557 6.82386C1.47206 2.00182 6.3554 -0.932739 11.176 0.269324C15.9978 1.47139 18.9318 6.35557 17.7297 11.1773H17.73Z" fill="#F7931A"/>
<path fill-rule="evenodd" clip-rule="evenodd" d="M11.7106 7.95445C11.8319 7.14204 11.2134 6.70531 10.3676 6.41396L10.6419 5.31345L9.97187 5.1465L9.70476 6.21801C9.52885 6.17413 9.34797 6.13273 9.16824 6.09171L9.43726 5.01314L8.76776 4.84619L8.49321 5.94632C8.34744 5.91312 8.20434 5.88031 8.06544 5.84577L8.0662 5.84234L7.14237 5.61166L6.96417 6.32715C6.96417 6.32715 7.46119 6.44105 7.4507 6.44811C7.72201 6.51585 7.77123 6.69539 7.76284 6.83772L7.45031 8.09144C7.46901 8.09621 7.49324 8.10308 7.51996 8.11376L7.44936 8.09621L7.0111 9.85249C6.9779 9.93491 6.89376 10.0585 6.70411 10.0116C6.71079 10.0213 6.2172 9.89007 6.2172 9.89007L5.88464 10.6571L6.75658 10.8744C6.85501 10.8991 6.95223 10.9244 7.0484 10.9495L7.04844 10.9495C7.11071 10.9658 7.17254 10.9819 7.23395 10.9976L6.95673 12.1109L7.62585 12.2779L7.90059 11.1766C8.08319 11.2262 8.26063 11.272 8.43425 11.3151L8.16065 12.4113L8.83053 12.5782L9.10776 11.4672C10.2501 11.6834 11.1092 11.5962 11.4704 10.5632C11.7617 9.73133 11.4561 9.25148 10.8551 8.93838C11.2928 8.83707 11.6224 8.54916 11.7104 7.95445H11.7106ZM10.1798 10.1007C9.98967 10.8642 8.79434 10.5483 8.24791 10.4039L8.2479 10.4039C8.19897 10.391 8.15525 10.3794 8.11791 10.3701L8.48576 8.89545C8.5314 8.90684 8.58716 8.91936 8.65032 8.93353C9.21562 9.06038 10.3741 9.32035 10.18 10.1007H10.1798ZM8.76394 8.24923C9.21988 8.37087 10.2137 8.63601 10.3869 7.94243C10.5639 7.23287 9.59745 7.01901 9.12547 6.91456C9.07241 6.90282 9.0256 6.89246 8.98737 6.88294L8.65386 8.22042C8.68541 8.22828 8.72245 8.23816 8.76394 8.24923Z" fill="#F7931A"/>
</svg>
