<svg width="20" height="20" viewBox="0 0 20 20" fill="none" xmlns="http://www.w3.org/2000/svg">
<path d="M15.0333 11.2918C14.6833 11.6335 14.4833 12.1252 14.5333 12.6502C14.6083 13.5502 15.4333 14.2085 16.3333 14.2085H17.9166V15.2002C17.9166 16.9252 16.5083 18.3335 14.7833 18.3335H5.21665C3.49165 18.3335 2.08331 16.9252 2.08331 15.2002V9.59184C2.08331 7.86684 3.49165 6.4585 5.21665 6.4585H14.7833C16.5083 6.4585 17.9166 7.86684 17.9166 9.59184V10.7918H16.2333C15.7666 10.7918 15.3416 10.9752 15.0333 11.2918Z" stroke="white" stroke-width="1.5" stroke-linecap="round" stroke-linejoin="round"/>
<path d="M2.08331 10.3416V6.5333C2.08331 5.54163 2.69165 4.65826 3.61665 4.30826L10.2333 1.80826C11.2666 1.41659 12.375 2.18329 12.375 3.29162V6.45828" stroke="white" stroke-width="1.5" stroke-linecap="round" stroke-linejoin="round"/>
<path d="M18.799 11.642V13.3587C18.799 13.817 18.4323 14.192 17.9657 14.2086H16.3323C15.4323 14.2086 14.6073 13.5503 14.5323 12.6503C14.4823 12.1253 14.6823 11.6336 15.0323 11.292C15.3407 10.9753 15.7657 10.792 16.2323 10.792H17.9657C18.4323 10.8087 18.799 11.1836 18.799 11.642Z" stroke="white" stroke-width="1.5" stroke-linecap="round" stroke-linejoin="round"/>
<path d="M5.83331 10H11.6666" stroke="white" stroke-width="1.5" stroke-linecap="round" stroke-linejoin="round"/>
</svg>
