<svg width="18" height="18" viewBox="0 0 18 18" fill="none" xmlns="http://www.w3.org/2000/svg">
<path opacity="0.1" d="M9 18C13.9706 18 18 13.9706 18 9C18 4.02944 13.9706 0 9 0C4.02944 0 0 4.02944 0 9C0 13.9706 4.02944 18 9 18Z" fill="#662D91"/>
<mask id="mask0_1_13074" style="mask-type:luminance" maskUnits="userSpaceOnUse" x="0" y="0" width="18" height="18">
<path d="M9 18C13.9706 18 18 13.9706 18 9C18 4.02944 13.9706 0 9 0C4.02944 0 0 4.02944 0 9C0 13.9706 4.02944 18 9 18Z" fill="white"/>
</mask>
<g mask="url(#mask0_1_13074)">
<path fill-rule="evenodd" clip-rule="evenodd" d="M8.31053 13.7777L9.67784 12.2617C9.70088 12.239 9.68552 12.2011 9.64711 12.2011H8.14154C8.13385 12.2011 8.11849 12.1935 8.11081 12.1859L6.83568 10.776C6.828 10.7609 6.82031 10.7457 6.828 10.7305L8.96346 7.11488C8.97114 7.09972 8.97114 7.08456 8.96346 7.07698L8.08008 5.57614C8.06472 5.5534 8.02631 5.5534 8.01095 5.57614L4.85384 10.9276C4.84616 10.9428 4.84616 10.9579 4.85384 10.9731L7.38875 13.7853C7.39643 13.7929 7.40411 13.8004 7.41947 13.8004H8.2798C8.28748 13.7929 8.30285 13.7853 8.31053 13.7777Z" fill="white"/>
<path d="M8.35659 4.98501C8.34891 5.00017 8.34891 5.01533 8.35659 5.02291L9.27837 6.58439L11.7211 10.7231C11.7288 10.7382 11.7288 10.7534 11.7134 10.7686L10.4229 12.1936L9.04793 13.7248C9.02488 13.7475 9.04025 13.7854 9.07865 13.7854H11.1373C11.145 13.7854 11.1603 13.7778 11.168 13.7702L13.7029 10.9581C13.7106 10.9429 13.7183 10.9277 13.7106 10.9126L9.3091 3.48417C9.30142 3.45385 9.26301 3.45385 9.24765 3.48417L8.35659 4.98501Z" fill="white"/>
</g>
</svg>
