<svg width="18" height="18" viewBox="0 0 18 18" fill="none" xmlns="http://www.w3.org/2000/svg">
<path opacity="0.2" d="M9 18C13.9706 18 18 13.9706 18 9C18 4.02944 13.9706 0 9 0C4.02944 0 0 4.02944 0 9C0 13.9706 4.02944 18 9 18Z" fill="#35B14F"/>
<path fill-rule="evenodd" clip-rule="evenodd" d="M6.23078 5.53857V9.5738C6.23078 9.5738 6.20915 13.3518 10.2595 13.1458C10.2595 13.1458 12.6358 9.83119 7.60248 6.72238C7.60248 6.72238 12.4737 8.118 11.5989 13.154C11.5989 13.154 14.4503 11.3239 12.4306 8.01943C12.4306 8.01943 11.048 5.65183 6.23078 5.53857Z" fill="#35B14F"/>
</svg>
