<svg width="20" height="20" viewBox="0 0 20 20" fill="none" xmlns="http://www.w3.org/2000/svg">
<path d="M7.22496 11.6665H3.33329C2.41663 11.6665 1.66663 12.4165 1.66663 13.3332V18.3332H7.22496V11.6665Z" stroke="#212121" stroke-miterlimit="10" stroke-linecap="round" stroke-linejoin="round"/>
<path d="M11.1083 8.3335H8.88334C7.96667 8.3335 7.21667 9.0835 7.21667 10.0002V18.3335H12.775V10.0002C12.775 9.0835 12.0333 8.3335 11.1083 8.3335Z" stroke="#212121" stroke-miterlimit="10" stroke-linecap="round" stroke-linejoin="round"/>
<path d="M16.6667 14.1665H12.775V18.3332H18.3334V15.8332C18.3334 14.9165 17.5834 14.1665 16.6667 14.1665Z" stroke="#212121" stroke-miterlimit="10" stroke-linecap="round" stroke-linejoin="round"/>
<path d="M10.4333 1.72485L10.8749 2.60818C10.9333 2.73318 11.0916 2.84985 11.2249 2.86652L12.0249 2.99985C12.5333 3.08318 12.6583 3.45817 12.2916 3.8165L11.6666 4.4415C11.5583 4.54984 11.4999 4.74984 11.5333 4.89151L11.7083 5.65819C11.8499 6.26652 11.5249 6.49986 10.9916 6.18319L10.2416 5.74153C10.1083 5.65819 9.88328 5.65819 9.74995 5.74153L8.99995 6.18319C8.46661 6.49986 8.14161 6.26652 8.28328 5.65819L8.45828 4.89151C8.49162 4.74984 8.43328 4.5415 8.32495 4.4415L7.70828 3.82484C7.34161 3.45818 7.45828 3.0915 7.97495 3.00817L8.77495 2.87486C8.90828 2.84986 9.06661 2.73319 9.12495 2.61653L9.56661 1.73317C9.80828 1.24984 10.1916 1.24985 10.4333 1.72485Z" stroke="#212121" stroke-linecap="round" stroke-linejoin="round"/>
</svg>
