<svg width="20" height="20" viewBox="0 0 20 20" fill="none" xmlns="http://www.w3.org/2000/svg">
<g id="vuesax/bold/bag-tick">
<g id="bag-tick">
<path id="Vector" d="M16.0346 4.65046H15.7013L12.8846 1.83379C12.6596 1.60879 12.293 1.60879 12.0596 1.83379C11.8346 2.05879 11.8346 2.42546 12.0596 2.65879L14.0513 4.65046H5.9513L7.94297 2.65879C8.16797 2.43379 8.16797 2.06712 7.94297 1.83379C7.71797 1.60879 7.3513 1.60879 7.11797 1.83379L4.30963 4.65046H3.9763C3.2263 4.65046 1.66797 4.65046 1.66797 6.78379C1.66797 7.59212 1.83464 8.12546 2.18464 8.47546C2.38464 8.68379 2.6263 8.79212 2.88464 8.85046C3.1263 8.90879 3.38464 8.91712 3.63464 8.91712H16.368C16.6263 8.91712 16.868 8.90045 17.1013 8.85046C17.8013 8.68379 18.3346 8.18379 18.3346 6.78379C18.3346 4.65046 16.7763 4.65046 16.0346 4.65046Z" fill="white"/>
<path id="Vector_2" d="M15.9068 10H4.09012C3.57345 10 3.18179 10.4583 3.26512 10.9667L3.96512 15.25C4.19845 16.6833 4.82345 18.3333 7.59845 18.3333H12.2735C15.0818 18.3333 15.5818 16.925 15.8818 15.35L16.7235 10.9917C16.8235 10.475 16.4318 10 15.9068 10ZM12.3985 13.375L9.69012 15.875C9.57345 15.9833 9.42345 16.0417 9.26512 16.0417C9.10679 16.0417 8.94845 15.9833 8.82345 15.8583L7.57345 14.6083C7.33179 14.3667 7.33179 13.9667 7.57345 13.725C7.82345 13.4833 8.21512 13.4833 8.46512 13.725L9.29012 14.55L11.5568 12.4583C11.8068 12.225 12.2068 12.2417 12.4401 12.4917C12.6735 12.75 12.6568 13.1417 12.3985 13.375Z" fill="white"/>
</g>
</g>
</svg>
