<svg width="16" height="16" viewBox="0 0 16 16" fill="none" xmlns="http://www.w3.org/2000/svg">
<g id="vuesax/bold/notification">
<g id="notification">
<path id="Vector" d="M12.8936 9.65968L12.227 8.55301C12.087 8.30634 11.9603 7.83968 11.9603 7.56634V5.87967C11.9603 4.31301 11.0403 2.95967 9.71362 2.32634C9.36695 1.71301 8.72695 1.33301 7.99362 1.33301C7.26695 1.33301 6.61362 1.72634 6.26695 2.34634C4.96695 2.99301 4.06695 4.33301 4.06695 5.87967V7.56634C4.06695 7.83968 3.94029 8.30634 3.80029 8.54634L3.12695 9.65968C2.86029 10.1063 2.80029 10.5997 2.96695 11.053C3.12695 11.4997 3.50695 11.8463 4.00029 12.013C5.29362 12.453 6.65362 12.6663 8.01362 12.6663C9.37362 12.6663 10.7336 12.453 12.027 12.0197C12.4936 11.8663 12.8536 11.513 13.027 11.053C13.2003 10.593 13.1536 10.0863 12.8936 9.65968Z" fill="#F6D456"/>
<path id="Vector_2" d="M9.88678 13.3397C9.60678 14.113 8.86678 14.6663 8.00012 14.6663C7.47345 14.6663 6.95345 14.453 6.58678 14.073C6.37345 13.873 6.21345 13.6063 6.12012 13.333C6.20678 13.3463 6.29345 13.353 6.38678 13.3663C6.54012 13.3863 6.70012 13.4063 6.86012 13.4197C7.24012 13.453 7.62678 13.473 8.01345 13.473C8.39345 13.473 8.77345 13.453 9.14678 13.4197C9.28678 13.4063 9.42678 13.3997 9.56012 13.3797C9.66678 13.3663 9.77345 13.353 9.88678 13.3397Z" fill="#F6D456"/>
</g>
</g>
</svg>
