<svg width="36" height="36" viewBox="0 0 36 36" fill="none" xmlns="http://www.w3.org/2000/svg">
<rect width="36" height="36" rx="6" fill="#212121" fill-opacity="0.1"/>
<path d="M26.2813 28.1323L25.7218 25.5916C25.69 25.4422 25.6101 25.3303 25.482 25.256C25.3435 25.1813 25.205 25.171 25.0667 25.2243L24.9866 25.256L24.7947 25.3039C24.7093 25.3249 24.6108 25.3491 24.499 25.3757C24.3871 25.4024 24.2568 25.4288 24.1074 25.4556C23.9588 25.4822 23.8009 25.5064 23.6362 25.5276C23.4711 25.5485 23.293 25.5675 23.101 25.5835C22.9091 25.5993 22.7175 25.6073 22.5256 25.6073C21.1725 25.6073 19.9552 25.2426 18.874 24.5128C17.7926 23.7828 16.9963 22.7947 16.485 21.5484H22.6691C22.7865 21.5484 22.8931 21.5086 22.9886 21.4285C23.0848 21.3488 23.1434 21.2503 23.1643 21.1327L23.5478 19.3429C23.5799 19.1836 23.5478 19.0395 23.4522 18.9116C23.3457 18.7836 23.2122 18.7196 23.0526 18.7196H15.718C15.6861 17.9952 15.6861 17.4359 15.718 17.0417H23.5164C23.8043 17.0417 23.9745 16.9033 24.0278 16.6263L24.4113 14.8045C24.443 14.6554 24.4063 14.517 24.2994 14.3891C24.2039 14.2613 24.0707 14.1971 23.9002 14.1971H16.4212C16.9539 13.0039 17.7528 12.0664 18.8183 11.3846C19.8837 10.7025 21.0876 10.3617 22.4299 10.3617C22.4726 10.3405 22.6296 10.3458 22.9011 10.3777C23.1727 10.4095 23.3275 10.423 23.3646 10.4176C23.4014 10.4123 23.5405 10.4284 23.7799 10.4654C24.0197 10.5027 24.1397 10.5214 24.1397 10.5214L24.4193 10.5773C24.4994 10.5934 24.5606 10.6065 24.6032 10.6173L24.6671 10.6332C24.8055 10.676 24.933 10.6626 25.0507 10.5934C25.1679 10.5239 25.2426 10.4202 25.2746 10.2817L25.9618 7.74088C25.9936 7.60235 25.9775 7.4745 25.914 7.35735C25.818 7.22929 25.7113 7.14942 25.5941 7.11757C24.6141 6.87258 23.5803 6.75 22.4939 6.75C20.1071 6.75 17.974 7.43202 16.0936 8.79551C14.2132 10.1591 12.9161 11.9597 12.2022 14.1969H10.6363C10.4871 14.1969 10.3647 14.2447 10.2687 14.3406C10.1731 14.4364 10.125 14.559 10.125 14.7082V16.53C10.125 16.6791 10.1729 16.8017 10.2687 16.8973C10.3647 16.9933 10.4873 17.0411 10.6363 17.0411H11.7071C11.6749 17.5526 11.6698 18.1116 11.6909 18.7192H10.6363C10.4978 18.7192 10.378 18.7697 10.2768 18.8709C10.1757 18.972 10.125 19.0919 10.125 19.2302V21.0361C10.125 21.1748 10.1757 21.2943 10.2768 21.3959C10.3781 21.4971 10.4978 21.5472 10.6363 21.5472H12.1545C12.8257 23.9016 14.0935 25.7742 15.9579 27.1644C17.8224 28.5551 20.0011 29.25 22.4939 29.25C22.6965 29.25 22.9014 29.245 23.1093 29.2339C23.3175 29.2232 23.5115 29.2071 23.6927 29.1861C23.8737 29.165 24.0523 29.1412 24.2281 29.1144C24.4037 29.0876 24.5637 29.0614 24.7073 29.0343C24.8512 29.0079 24.987 28.9813 25.1148 28.9549C25.2427 28.9279 25.3572 28.8989 25.4586 28.8668C25.5597 28.8352 25.6446 28.811 25.7141 28.7953C25.7835 28.7793 25.8394 28.7603 25.8817 28.7394L25.9618 28.7233C26.079 28.6808 26.1696 28.6034 26.2334 28.4914C26.2974 28.3801 26.3131 28.2601 26.2813 28.1323Z" fill="#212121"/>
</svg>
