<svg width="19" height="19" viewBox="0 0 19 19" fill="none" xmlns="http://www.w3.org/2000/svg">
<path d="M10.7741 2.19375L12.2408 5.12708C12.4408 5.53542 12.9741 5.92708 13.4241 6.00208L16.0824 6.44375C17.7824 6.72708 18.1824 7.96042 16.9574 9.17708L14.8908 11.2437C14.5408 11.5937 14.3491 12.2687 14.4574 12.7521L15.0491 15.3104C15.5158 17.3354 14.4408 18.1187 12.6491 17.0604L10.1574 15.5854C9.70744 15.3187 8.96578 15.3187 8.50744 15.5854L6.01578 17.0604C4.23244 18.1187 3.14911 17.3271 3.61578 15.3104L4.20744 12.7521C4.31578 12.2687 4.12411 11.5937 3.77411 11.2437L1.70744 9.17708C0.490777 7.96042 0.882444 6.72708 2.58244 6.44375L5.24078 6.00208C5.68244 5.92708 6.21578 5.53542 6.41578 5.12708L7.88244 2.19375C8.68244 0.602083 9.98244 0.602083 10.7741 2.19375Z" stroke="#292D32" stroke-width="1.5" stroke-linecap="round" stroke-linejoin="round"/>
</svg>
