<svg width="16" height="24" viewBox="0 0 16 24" fill="none" xmlns="http://www.w3.org/2000/svg">
<rect x="0.5" y="0.5" width="14" height="23" rx="4.5" stroke="#090909"/>
<rect x="4.30005" y="5" width="2.5" height="2.5" rx="1" fill="#090909"/>
<rect x="8.30005" y="5" width="2.5" height="2.5" rx="1" fill="#090909"/>
<rect x="4.30005" y="9" width="2.5" height="2.5" rx="1" fill="#090909"/>
<rect x="8.30005" y="9" width="2.5" height="2.5" rx="1" fill="#090909"/>
<rect x="4.30005" y="13" width="2.5" height="2.5" rx="1" fill="#090909"/>
<rect x="10" y="12" width="5" height="12" fill="white"/>
<path d="M9 14.5C8.72386 14.5 8.5 14.7239 8.5 15L8.5 19.5C8.5 19.7761 8.72386 20 9 20C9.27614 20 9.5 19.7761 9.5 19.5L9.5 15.5L13.5 15.5C13.7761 15.5 14 15.2761 14 15C14 14.7239 13.7761 14.5 13.5 14.5L9 14.5ZM8.64645 15.3536L14.6464 21.3536L15.3536 20.6464L9.35355 14.6464L8.64645 15.3536Z" fill="#090909"/>
</svg>
