<svg width="40" height="40" viewBox="0 0 40 40" fill="none" xmlns="http://www.w3.org/2000/svg">
<g id="Group 971">
<rect id="Rectangle 1330" width="40" height="40" rx="6" fill="#BBA025" fill-opacity="0.18"/>
<path id="Combined Shape" fill-rule="evenodd" clip-rule="evenodd" d="M19.4087 8.75H12.0139V18.572H7.5V21.8458H12.0139V31.6667H19.4087C23.312 31.6667 24.153 31.2579 25.8351 30.4403C25.9657 30.3769 26.1013 30.3109 26.2439 30.2426C28.2226 29.2931 29.7604 27.9564 30.8572 26.2321C31.954 24.5079 32.5024 22.5 32.5024 20.2083C32.5024 17.9167 31.954 15.9087 30.8572 14.1845C29.7604 12.4603 28.2226 11.1235 26.2439 10.1741C24.2651 9.2247 21.9868 8.75 19.4087 8.75ZM17.5061 21.8458V27.3121H19.1343C21.5088 27.3121 23.4027 26.6737 24.8161 25.3969C26.2295 24.1202 26.9362 22.3905 26.9362 20.208C26.9362 18.0254 26.2295 16.2958 24.8161 15.019C23.4027 13.7422 21.5088 13.1038 19.1343 13.1038H17.5061V18.572H22.7646V21.8458H17.5061Z" fill="#BBA025"/>
</g>
</svg>
