<svg width="40" height="40" viewBox="0 0 40 40" fill="none" xmlns="http://www.w3.org/2000/svg">
<g id="Group 975">
<rect id="Rectangle 1329" width="40" height="40" rx="6" fill="#212121" fill-opacity="0.1"/>
<path id="Shape" fill-rule="evenodd" clip-rule="evenodd" d="M18.2856 7.5C19.7293 7.5 21.1677 7.5 22.6115 7.5C22.5265 8.47665 22.4363 9.4586 22.3567 10.4352C24.0393 10.5573 25.6794 11.0987 27.155 11.9002C26.518 13.5032 25.8758 15.1062 25.2335 16.7091C23.9915 15.6529 22.3567 15.069 20.7272 15.0902C20.3185 15.1008 19.8938 15.1805 19.5541 15.414C19.3312 15.5679 19.1667 15.8068 19.1189 16.0722C19.0817 16.2845 19.0924 16.5234 19.2091 16.7144C19.3418 16.9268 19.5754 17.0541 19.8089 17.1338C20.2866 17.3036 20.8015 17.3142 21.3004 17.3673C22.4735 17.5106 23.6518 17.7123 24.7611 18.1316C25.621 18.4607 26.4437 18.9544 27.0329 19.6762C27.5902 20.3397 27.914 21.1783 28.0361 22.0382C28.1794 23.0308 28.1369 24.0605 27.8291 25.0265C27.5902 25.8015 27.1815 26.5234 26.6507 27.1338C25.552 28.4076 23.9384 29.172 22.2824 29.3684C22.3355 30.414 22.3992 31.4544 22.4575 32.5C21.0881 32.5 19.724 32.5 18.3599 32.5C18.413 31.465 18.482 30.4299 18.5297 29.3949C17.431 29.3577 16.3429 29.1136 15.3185 28.7261C14.3259 28.3493 13.3811 27.8503 12.5 27.2665C13.1476 25.5998 13.7951 23.9331 14.448 22.2611C15.1858 22.8822 15.9713 23.4607 16.8312 23.9013C17.7548 24.3737 18.7792 24.6762 19.8195 24.6868C20.3132 24.6921 20.8227 24.6656 21.2898 24.4958C21.5764 24.3896 21.8577 24.2038 21.9851 23.9119C22.1178 23.604 22.1072 23.2166 21.9055 22.9406C21.7622 22.7548 21.5605 22.6274 21.3482 22.5372C21.0616 22.4204 20.7643 22.3567 20.4618 22.3089C19.3471 22.1285 18.2272 21.9798 17.1497 21.6295C16.2845 21.3482 15.4406 20.9554 14.7505 20.3503C14.3153 19.9735 13.9544 19.5117 13.6996 18.9915C13.3174 18.2166 13.1741 17.3408 13.1847 16.4809C13.1847 15.5202 13.3811 14.5435 13.8588 13.6996C14.2728 12.9459 14.9045 12.3301 15.6157 11.8577C16.4756 11.2898 17.4363 10.9023 18.413 10.5892C18.3705 9.55945 18.328 8.52972 18.2856 7.5Z" fill="#212121"/>
</g>
</svg>
