<svg width="40" height="40" viewBox="0 0 40 40" fill="none" xmlns="http://www.w3.org/2000/svg">
<g id="Group 974">
<rect id="Rectangle 1335" width="40" height="40" rx="6" fill="#161C31" fill-opacity="0.15"/>
<g id="Group">
<path id="Shape" d="M19.9832 7.5L19.8223 8.04685V23.9151L19.9832 24.0757L27.349 19.7218L19.9832 7.5Z" fill="#62688F"/>
<path id="Shape_2" d="M19.985 7.5L12.6191 19.7218L19.985 24.0758V16.3738V7.5Z" fill="url(#paint0_linear_124_11746)"/>
<path id="Shape_3" d="M19.9813 26.4729L19.8906 26.5834V32.236L19.9813 32.5008L27.3516 22.1211L19.9813 26.4729Z" fill="#62688F"/>
<path id="Shape_4" d="M19.985 32.5008V26.4729L12.6191 22.1211L19.985 32.5008Z" fill="url(#paint1_linear_124_11746)"/>
<path id="Shape_5" d="M19.9824 24.0746L27.3482 19.7207L19.9824 16.3728V24.0746Z" fill="#454A75"/>
<path id="Shape_6" d="M12.6191 19.7207L19.9849 24.0747V16.3728L12.6191 19.7207Z" fill="#62688F"/>
</g>
</g>
<defs>
<linearGradient id="paint0_linear_124_11746" x1="16.3021" y1="7.5" x2="16.3021" y2="24.0758" gradientUnits="userSpaceOnUse">
<stop stop-color="#8A91B3"/>
<stop offset="1" stop-color="#8A91B3"/>
</linearGradient>
<linearGradient id="paint1_linear_124_11746" x1="16.3021" y1="22.1211" x2="16.3021" y2="32.5008" gradientUnits="userSpaceOnUse">
<stop stop-color="#8A92B2"/>
<stop offset="1" stop-color="#8A91B3"/>
</linearGradient>
</defs>
</svg>
