<svg width="12" height="12" viewBox="0 0 12 12" fill="none" xmlns="http://www.w3.org/2000/svg">
<g id="vuesax/bold/tag">
<g id="tag">
<path id="Vector" d="M9.91523 4.35002L7.65023 2.08502C7.17523 1.61002 6.52023 1.35502 5.85023 1.39002L3.35023 1.51002C2.35023 1.55502 1.55523 2.35002 1.50523 3.34502L1.38523 5.84502C1.35523 6.51502 1.60523 7.17002 2.08023 7.64502L4.34523 9.91002C5.27523 10.84 6.78523 10.84 7.72023 9.91002L9.91523 7.71502C10.8502 6.79002 10.8502 5.28002 9.91523 4.35002ZM4.75023 6.19002C3.95523 6.19002 3.31023 5.54502 3.31023 4.75002C3.31023 3.95502 3.95523 3.31002 4.75023 3.31002C5.54523 3.31002 6.19023 3.95502 6.19023 4.75002C6.19023 5.54502 5.54523 6.19002 4.75023 6.19002Z" fill="#212121"/>
</g>
</g>
</svg>
