<svg width="36" height="36" viewBox="0 0 36 36" fill="none" xmlns="http://www.w3.org/2000/svg">
<g id="Group 964">
<rect id="Rectangle 1332" width="36" height="36" rx="6" fill="#F7931A" fill-opacity="0.18"/>
<path id="Shape" fill-rule="evenodd" clip-rule="evenodd" d="M25.3831 16.0155C25.7009 13.8878 24.0809 12.744 21.8658 11.981L22.5843 9.09874L20.8294 8.66151L20.1298 11.4678C19.6691 11.3529 19.1954 11.2444 18.7247 11.137L19.4293 8.31223L17.6758 7.875L16.9568 10.7562C16.575 10.6693 16.2003 10.5833 15.8365 10.4929L15.8385 10.4839L13.419 9.87976L12.9523 11.7536C12.9523 11.7536 14.254 12.0519 14.2265 12.0704C14.937 12.2478 15.066 12.718 15.044 13.0908L14.2255 16.3743C14.2744 16.3867 14.3379 16.4047 14.4079 16.4327L14.223 16.3867L13.0752 20.9864C12.9882 21.2023 12.7679 21.5261 12.2712 21.4031C12.2887 21.4286 10.996 21.0848 10.996 21.0848L10.125 23.0936L12.4086 23.6628C12.6664 23.7274 12.9211 23.7938 13.1729 23.8595L13.173 23.8595C13.3361 23.9021 13.498 23.9443 13.6588 23.9856L12.9328 26.9013L14.6852 27.3385L15.4047 24.4543C15.8829 24.5842 16.3477 24.7041 16.8024 24.817L16.0858 27.6878L17.8402 28.125L18.5663 25.2153C21.5579 25.7814 23.8081 25.5531 24.754 22.8478C25.517 20.6691 24.7165 19.4124 23.1425 18.5924C24.2888 18.327 25.1522 17.573 25.3826 16.0155H25.3831ZM21.3722 21.6362C20.8741 23.6358 17.7435 22.8084 16.3125 22.4302L16.3123 22.4302C16.1842 22.3963 16.0697 22.366 15.972 22.3417L16.9354 18.4796C17.0549 18.5095 17.2009 18.5422 17.3663 18.5793L17.3664 18.5793C18.8469 18.9116 21.881 19.5924 21.3727 21.6362H21.3722ZM17.6645 16.7865C18.8586 17.1051 21.4615 17.7995 21.9149 15.983C22.3785 14.1247 19.8475 13.5646 18.6114 13.291C18.4724 13.2603 18.3498 13.2331 18.2497 13.2082L17.3762 16.711C17.4589 16.7316 17.5559 16.7575 17.6645 16.7865Z" fill="#F7931A"/>
</g>
</svg>
