<svg width="18" height="18" viewBox="0 0 18 18" fill="none" xmlns="http://www.w3.org/2000/svg">
<path opacity="0.2" d="M9 18C13.9706 18 18 13.9706 18 9C18 4.02944 13.9706 0 9 0C4.02944 0 0 4.02944 0 9C0 13.9706 4.02944 18 9 18Z" fill="#F3BA2F"/>
<path fill-rule="evenodd" clip-rule="evenodd" d="M7.11847 8.2264L9.00095 6.34474L10.8842 8.22793L11.9789 7.13246L9.00095 4.15381L6.02297 7.1317L7.11847 8.2264ZM4.15387 9.00013L5.24897 7.90506L6.34407 9.00013L5.24897 10.0952L4.15387 9.00013ZM9.00095 11.656L7.11847 9.77352L6.02144 10.8675L6.02297 10.869L9.00095 13.8461L11.9789 10.8675L11.9797 10.8667L10.8842 9.77276L9.00095 11.656ZM11.656 9.0004L12.7511 7.90533L13.8462 9.0004L12.7511 10.0955L11.656 9.0004ZM9.00095 7.88804L10.1118 8.99958H10.1125L10.1118 9.00034L9.00095 10.1119L7.89014 9.00188L7.88861 8.99958L7.89014 8.99805L8.08459 8.80361L8.17952 8.70945L9.00095 7.88804Z" fill="#F3BA2F"/>
</svg>
