<svg width="18" height="18" viewBox="0 0 18 18" fill="none" xmlns="http://www.w3.org/2000/svg">
<path opacity="0.2" d="M17.9512 9.00038C17.9512 13.9448 13.9431 17.953 8.99872 17.953C4.05432 17.953 0.0461426 13.9448 0.0461426 9.00038C0.0461426 4.05603 4.05432 0.0478516 8.99872 0.0478516C13.943 0.0478516 17.9512 4.05603 17.9512 9.00038Z" fill="#3CC8C8"/>
<path fill-rule="evenodd" clip-rule="evenodd" d="M9.60115 4.56824C9.7214 4.33983 9.44512 4.06328 9.21878 4.18249C9.03466 4.2566 8.98793 4.52581 9.13124 4.66202C9.2665 4.80394 9.53131 4.75443 9.60115 4.56824ZM7.08188 4.66899C7.0959 4.51763 6.92186 4.39039 6.78436 4.44756C6.59297 4.49906 6.57174 4.80352 6.75741 4.87616C6.89756 4.95426 7.09647 4.83331 7.08188 4.66899ZM11.7703 4.88078C11.5555 4.85455 11.5215 4.51333 11.7283 4.44462C11.8888 4.36558 12.036 4.5138 12.0595 4.66742C12.0258 4.79859 11.9171 4.9187 11.7703 4.88078ZM7.86078 5.83569C7.89614 5.566 7.56814 5.3473 7.33828 5.49415C7.12301 5.60534 7.09341 5.93707 7.28875 6.08167C7.49078 6.26576 7.84884 6.108 7.86078 5.83569ZM10.8473 5.64997C10.9499 5.38302 11.3654 5.37494 11.4821 5.63482C11.5975 5.83705 11.4556 6.08749 11.25 6.15625C10.9777 6.2076 10.7191 5.91027 10.8473 5.64997ZM9.3462 5.72503C9.13031 5.74066 8.92339 5.91163 8.92562 6.14109C8.91332 6.32859 9.04593 6.48174 9.20341 6.55983C9.21926 6.56079 9.23532 6.56208 9.2515 6.56338C9.34044 6.57051 9.43283 6.57792 9.51288 6.53261C9.71974 6.4402 9.82141 6.16296 9.70691 5.96162C9.64549 5.81566 9.48941 5.75403 9.3462 5.72503ZM5.30528 6.47545C5.51526 6.34506 5.79855 6.58302 5.71905 6.81342C5.67528 7.01272 5.41006 7.0938 5.25844 6.96657C5.0966 6.84735 5.12225 6.56073 5.30528 6.47545ZM13.5304 6.72279C13.5516 6.49559 13.2576 6.33531 13.0795 6.47503C12.8967 6.58842 12.9166 6.89109 13.1113 6.97952C13.2882 7.0862 13.5423 6.92996 13.5304 6.72279ZM9.94374 6.88753C10.2377 6.78085 10.5869 6.90851 10.7545 7.17326C10.9755 7.49692 10.8579 7.98982 10.5149 8.17553C10.1595 8.39518 9.6405 8.209 9.50924 7.80809C9.36022 7.44919 9.57731 7.00003 9.94374 6.88753ZM9.14054 7.23447C8.98316 6.89781 8.54466 6.76747 8.21885 6.92282C7.87158 7.07949 7.71182 7.5416 7.89173 7.88183C8.05217 8.23365 8.5199 8.37783 8.85143 8.18765C9.18254 8.01845 9.32575 7.56216 9.14054 7.23447ZM6.49172 7.51926C6.51649 7.30721 6.71453 7.16922 6.91433 7.15496C7.1296 7.18118 7.30157 7.35006 7.32499 7.57013C7.31086 7.788 7.14419 8.00094 6.91562 7.99963C6.66416 8.0215 6.44369 7.7688 6.49172 7.51926ZM12.1982 7.56982C12.2097 7.27024 11.8512 7.04928 11.5931 7.20106C11.3159 7.33307 11.2951 7.7697 11.5621 7.92473C11.8192 8.11092 12.2159 7.88723 12.1982 7.56982ZM7.5169 8.31977C7.81883 8.23585 8.16407 8.37961 8.31215 8.65994C8.47436 8.94211 8.40805 9.3341 8.15612 9.54106C7.833 9.84463 7.23708 9.72274 7.06511 9.30846C6.86749 8.92868 7.10753 8.41973 7.5169 8.31977ZM11.5847 8.61777C11.4269 8.34767 11.082 8.23338 10.7885 8.31819C10.3761 8.43227 10.1577 8.96083 10.3748 9.33484C10.5538 9.69641 11.0577 9.81783 11.3831 9.58658C11.6937 9.38744 11.7933 8.92669 11.5847 8.61777ZM5.57491 8.67064C5.83573 8.57099 6.12483 8.86171 6.01917 9.1229C5.95463 9.36085 5.62263 9.44881 5.45113 9.27337C5.25045 9.10863 5.32475 8.74207 5.57491 8.67064ZM13.0164 8.62601C12.7948 8.63807 12.6367 8.83139 12.6443 9.04968C12.6876 9.15148 12.7402 9.25774 12.8427 9.3104C13.0615 9.43228 13.371 9.25595 13.3546 8.99655C13.3687 8.80013 13.1951 8.65459 13.0164 8.62601ZM4.29251 8.79877C4.44943 8.72959 4.64352 8.86695 4.60769 9.04297C4.59928 9.24227 4.30799 9.31889 4.20097 9.15237C4.10642 9.03672 4.16302 8.8584 4.29251 8.79877ZM14.5177 8.90283C14.4739 8.77244 14.2966 8.71533 14.1861 8.79478C14.0023 8.89386 14.0743 9.23676 14.2971 9.21625C14.4558 9.24033 14.5919 9.04522 14.5177 8.90283ZM8.36916 9.75148C8.78206 9.64302 9.2259 9.9908 9.22849 10.4202C9.25544 10.8542 8.8183 11.239 8.39564 11.1388C8.06894 11.0856 7.8126 10.7678 7.82319 10.4343C7.82231 10.1154 8.06058 9.81893 8.36916 9.75148ZM10.8738 10.4256C10.8805 9.98629 10.4234 9.63227 10.0043 9.75059C9.75588 9.81295 9.54549 10.0198 9.4906 10.2742C9.38187 10.6559 9.66922 11.0881 10.0586 11.1389C10.4725 11.2234 10.896 10.8516 10.8738 10.4256ZM6.8516 10.0149C7.14159 9.96494 7.41346 10.2917 7.29586 10.5699C7.21008 10.8663 6.78306 10.9467 6.59427 10.7046C6.37282 10.4721 6.53814 10.047 6.8516 10.0149ZM12.2031 10.428C12.223 10.1445 11.9056 9.91858 11.647 10.028C11.3344 10.1283 11.2823 10.6096 11.5687 10.7731C11.8216 10.9553 12.2135 10.7401 12.2031 10.428ZM12.9873 11.386C12.8861 11.1953 13.07 10.9426 13.2795 10.9779C13.3781 10.9762 13.4486 11.0502 13.5124 11.1171L13.5236 11.1288L13.526 11.1481C13.5395 11.2568 13.5551 11.3815 13.4675 11.4636C13.3414 11.6248 13.0558 11.5788 12.9873 11.386ZM5.73806 11.327C5.78209 11.0957 5.50025 10.8993 5.30439 11.031C5.11783 11.127 5.11119 11.427 5.29152 11.5324C5.45954 11.6485 5.71464 11.5316 5.73806 11.327ZM9.17371 11.4592C9.43011 11.3449 9.75676 11.5704 9.73246 11.8556C9.75146 12.1708 9.34745 12.3891 9.09676 12.1998C8.8183 12.0373 8.86472 11.5591 9.17371 11.4592ZM7.87314 12.2127C7.89303 11.9659 7.59997 11.7654 7.38158 11.8815C7.22774 11.9395 7.16501 12.111 7.16231 12.2649C7.21491 12.4062 7.32187 12.5547 7.4859 12.5583C7.68393 12.5882 7.87979 12.4155 7.87314 12.2127ZM11.0117 11.885C11.2363 11.7449 11.5555 11.9462 11.5342 12.2102C11.54 12.4861 11.1793 12.6629 10.9702 12.4816C10.7678 12.3396 10.7925 11.998 11.0117 11.885ZM11.8229 13.09C11.6607 13.1249 11.5431 13.3088 11.643 13.4615C11.7456 13.6387 12.0449 13.5753 12.0639 13.3686C12.0913 13.2159 11.9534 13.1168 11.8229 13.09ZM6.63186 13.3289C6.67164 13.2079 6.76801 13.0876 6.90903 13.1191C7.11459 13.1338 7.1756 13.4468 6.99569 13.5432C6.8339 13.6534 6.64619 13.5025 6.63186 13.3289ZM9.46942 13.2967C9.31822 13.2016 9.08882 13.2887 9.04946 13.4677C8.97755 13.6485 9.15025 13.8671 9.34169 13.8445C9.4447 13.8472 9.52425 13.7731 9.58614 13.6989C9.59819 13.649 9.61044 13.5989 9.62415 13.5489L9.6233 13.5458C9.59785 13.4505 9.56822 13.3396 9.46942 13.2967Z" fill="#3CC8C8"/>
</svg>
