<svg width="18" height="18" viewBox="0 0 18 18" fill="none" xmlns="http://www.w3.org/2000/svg">
<path opacity="0.2" d="M9 18C13.9706 18 18 13.9706 18 9C18 4.02944 13.9706 0 9 0C4.02944 0 0 4.02944 0 9C0 13.9706 4.02944 18 9 18Z" fill="#32A4BE"/>
<path opacity="0.2" d="M9 18C13.9706 18 18 13.9706 18 9C18 4.02944 13.9706 0 9 0C4.02944 0 0 4.02944 0 9C0 13.9706 4.02944 18 9 18Z" fill="#C2A633"/>
<mask id="mask0_1_13073" style="mask-type:luminance" maskUnits="userSpaceOnUse" x="0" y="0" width="18" height="18">
<path d="M9 18C13.9706 18 18 13.9706 18 9C18 4.02944 13.9706 0 9 0C4.02944 0 0 4.02944 0 9C0 13.9706 4.02944 18 9 18Z" fill="white"/>
</mask>
<g mask="url(#mask0_1_13073)">
<path fill-rule="evenodd" clip-rule="evenodd" d="M9.1489 5.39014H6.69154V8.65387H5.19232V9.74179H6.69154V13.0055H9.1489C10.446 13.0055 10.7255 12.8697 11.2844 12.598C11.3278 12.5769 11.3729 12.555 11.4203 12.5323C12.0778 12.2168 12.5888 11.7726 12.9533 11.1996C13.3178 10.6266 13.5 9.95937 13.5 9.19783C13.5 8.43629 13.3178 7.76904 12.9533 7.19607C12.5888 6.6231 12.0778 6.17887 11.4203 5.86338C10.7627 5.54788 10.0056 5.39014 9.1489 5.39014ZM8.51765 9.74179V11.5586H9.05872C9.84779 11.5586 10.4772 11.3465 10.9468 10.9222C11.4165 10.4979 11.6514 9.92311 11.6514 9.19783C11.6514 8.47255 11.4165 7.89778 10.9468 7.47349C10.4772 7.0492 9.84779 6.83706 9.05872 6.83706H8.51765V8.65387H10.2649V9.74179H8.51765Z" fill="#C2A633"/>
</g>
</svg>
