<svg width="18" height="18" viewBox="0 0 18 18" fill="none" xmlns="http://www.w3.org/2000/svg">
<path opacity="0.2" fill-rule="evenodd" clip-rule="evenodd" d="M9 18C13.9706 18 18 13.9706 18 9C18 4.02944 13.9706 0 9 0C4.02944 0 0 4.02944 0 9C0 13.9706 4.02944 18 9 18Z" fill="#83BD67"/>
<path fill-rule="evenodd" clip-rule="evenodd" d="M8.21147 4.84619C8.70575 4.84619 9.19822 4.84619 9.6925 4.84619C9.66343 5.18056 9.63253 5.51674 9.60527 5.85111C10.1813 5.89291 10.7428 6.07826 11.248 6.35266C11.03 6.90146 10.8101 7.45026 10.5902 7.99905C10.165 7.63743 9.60527 7.43754 9.04739 7.4448C8.90747 7.44844 8.76209 7.4757 8.64579 7.55565C8.56946 7.60835 8.51313 7.69013 8.49678 7.78099C8.48406 7.85368 8.48769 7.93545 8.52767 8.00087C8.5731 8.07356 8.65306 8.11717 8.73301 8.14443C8.89656 8.20258 9.07283 8.20622 9.24365 8.22439C9.64525 8.27345 10.0487 8.34251 10.4285 8.48607C10.7229 8.59873 11.0045 8.76773 11.2062 9.01487C11.397 9.24203 11.5079 9.52915 11.5497 9.82353C11.5988 10.1634 11.5842 10.5159 11.4788 10.8466C11.397 11.1119 11.2571 11.3591 11.0754 11.5681C10.6992 12.0042 10.1468 12.2659 9.57983 12.3331C9.59801 12.6911 9.61981 13.0473 9.6398 13.4053C9.17096 13.4053 8.70394 13.4053 8.23691 13.4053C8.25509 13.0509 8.27871 12.6965 8.29507 12.3422C7.9189 12.3295 7.54637 12.2459 7.19565 12.1132C6.85583 11.9842 6.53237 11.8134 6.23071 11.6135C6.45241 11.0429 6.67411 10.4723 6.89763 9.89986C7.15022 10.1125 7.41917 10.3105 7.71356 10.4614C8.02975 10.6231 8.38047 10.7267 8.73665 10.7303C8.90565 10.7321 9.0801 10.7231 9.24002 10.6649C9.33814 10.6286 9.43446 10.565 9.47807 10.465C9.5235 10.3596 9.51987 10.227 9.45081 10.1325C9.40175 10.0689 9.33269 10.0252 9.26 9.99435C9.16188 9.95437 9.06011 9.93257 8.95653 9.91621C8.57492 9.85443 8.19148 9.80354 7.82259 9.68361C7.52638 9.5873 7.23745 9.45282 7.00121 9.24566C6.8522 9.11664 6.72863 8.95854 6.6414 8.78045C6.51056 8.51514 6.4615 8.2153 6.46513 7.92091C6.46513 7.592 6.53237 7.25763 6.69592 6.96869C6.83766 6.71065 7.05391 6.49985 7.29742 6.33812C7.5918 6.14368 7.92072 6.01102 8.25509 5.90381C8.24055 5.55127 8.22601 5.19873 8.21147 4.84619Z" fill="#83BD67"/>
</svg>
