<svg width="18" height="18" viewBox="0 0 18 18" fill="none" xmlns="http://www.w3.org/2000/svg">
<path opacity="0.2" d="M17.9512 9.00038C17.9512 13.9448 13.9431 17.953 8.99872 17.953C4.05432 17.953 0.0461426 13.9448 0.0461426 9.00038C0.0461426 4.05603 4.05432 0.0478516 8.99872 0.0478516C13.943 0.0478516 17.9512 4.05603 17.9512 9.00038Z" fill="#505050"/>
<g opacity="0.8">
<path d="M8.97009 4.84619L8.91479 5.03414V10.488L8.97009 10.5432L11.5017 9.04677L8.97009 4.84619Z" fill="white"/>
<path d="M8.9701 4.84619L6.43848 9.04677L8.9701 10.5432V7.89608V4.84619Z" fill="white"/>
<path d="M8.97006 11.3668L8.9389 11.4048V13.3475L8.97006 13.4386L11.5032 9.87109L8.97006 11.3668Z" fill="white"/>
<path d="M8.9701 13.4386V11.3668L6.43848 9.87109L8.9701 13.4386Z" fill="white"/>
<path d="M8.97009 10.5431L11.5017 9.04668L8.97009 7.896V10.5431Z" fill="white"/>
<path d="M6.43848 9.04668L8.97006 10.5431V7.896L6.43848 9.04668Z" fill="white"/>
</g>
</svg>
