<svg width="18" height="18" viewBox="0 0 18 18" fill="none" xmlns="http://www.w3.org/2000/svg">
<path opacity="0.2" d="M17.9512 9.00038C17.9512 13.9448 13.9431 17.953 8.99872 17.953C4.05432 17.953 0.0461426 13.9448 0.0461426 9.00038C0.0461426 4.05603 4.05432 0.0478516 8.99872 0.0478516C13.943 0.0478516 17.9512 4.05603 17.9512 9.00038Z" fill="#F6D43D"/>
<path d="M11.5145 12.7409L11.308 11.8028C11.2963 11.7477 11.2667 11.7064 11.2194 11.6789C11.1683 11.6513 11.1172 11.6475 11.0661 11.6672L11.0365 11.6789L10.9657 11.6966C10.9341 11.7044 10.8978 11.7133 10.8565 11.7231C10.8152 11.733 10.7671 11.7427 10.7119 11.7526C10.6571 11.7624 10.5988 11.7714 10.5379 11.7792C10.477 11.7869 10.4112 11.7939 10.3404 11.7999C10.2695 11.8057 10.1988 11.8086 10.1279 11.8086C9.62831 11.8086 9.17887 11.674 8.77966 11.4045C8.3804 11.135 8.08636 10.7702 7.89758 10.31H10.1809C10.2242 10.31 10.2636 10.2953 10.2988 10.2657C10.3344 10.2363 10.356 10.2 10.3637 10.1565L10.5053 9.49571C10.5172 9.43687 10.5053 9.3837 10.47 9.33646C10.4307 9.28922 10.3814 9.26557 10.3225 9.26557H7.61442C7.60262 8.99812 7.60262 8.79162 7.61442 8.64605H10.4937C10.6 8.64605 10.6629 8.59497 10.6825 8.49269L10.8241 7.82006C10.8358 7.765 10.8223 7.71392 10.7828 7.66667C10.7475 7.61947 10.6984 7.59577 10.6354 7.59577H7.87404C8.07072 7.15523 8.36571 6.8091 8.7591 6.55735C9.15246 6.30553 9.59694 6.1797 10.0925 6.1797C10.1083 6.17185 10.1663 6.17383 10.2665 6.18561C10.3668 6.19735 10.424 6.20231 10.4377 6.20032C10.4512 6.19838 10.5026 6.20431 10.591 6.21799C10.6795 6.23176 10.7238 6.23866 10.7238 6.23866L10.8271 6.25928C10.8566 6.26524 10.8793 6.27007 10.895 6.27406L10.9186 6.27993C10.9697 6.29574 11.0167 6.29078 11.0602 6.26524C11.1035 6.23959 11.1311 6.2013 11.1429 6.15017L11.3966 5.21204C11.4083 5.16089 11.4024 5.11369 11.3789 5.07044C11.3435 5.02315 11.3041 4.99366 11.2608 4.9819C10.899 4.89145 10.5173 4.84619 10.1162 4.84619C9.23496 4.84619 8.44738 5.09801 7.75309 5.60143C7.05881 6.10489 6.57988 6.76971 6.31633 7.59571H5.73816C5.68307 7.59571 5.63787 7.61338 5.60245 7.64878C5.56713 7.68414 5.54938 7.72939 5.54938 7.78449V8.45712C5.54938 8.51218 5.56707 8.55744 5.60245 8.59275C5.63789 8.6282 5.68315 8.64582 5.73816 8.64582H6.1335C6.12162 8.83469 6.11974 9.04108 6.12755 9.26541H5.73816C5.68703 9.26541 5.64279 9.28407 5.60542 9.32143C5.56808 9.35878 5.54938 9.40304 5.54938 9.45411V10.1209C5.54938 10.1721 5.56808 10.2162 5.60542 10.2537C5.64281 10.2911 5.68703 10.3096 5.73816 10.3096H6.2987C6.54651 11.1789 7.01463 11.8703 7.70299 12.3835C8.39139 12.897 9.19579 13.1536 10.1162 13.1536C10.191 13.1536 10.2667 13.1517 10.3434 13.1476C10.4203 13.1437 10.4919 13.1377 10.5588 13.13C10.6256 13.1222 10.6916 13.1134 10.7565 13.1035C10.8213 13.0936 10.8804 13.084 10.9334 13.0739C10.9865 13.0642 11.0367 13.0544 11.0839 13.0446C11.1311 13.0346 11.1734 13.024 11.2108 13.0121C11.2481 13.0004 11.2795 12.9915 11.3051 12.9857C11.3307 12.9798 11.3514 12.9728 11.367 12.9651L11.3966 12.9591C11.4399 12.9434 11.4733 12.9148 11.4969 12.8735C11.5205 12.8324 11.5263 12.7881 11.5145 12.7409Z" fill="#FBE41A"/>
</svg>
