<svg width="18" height="18" viewBox="0 0 18 18" fill="none" xmlns="http://www.w3.org/2000/svg">
<path opacity="0.2" d="M17.9512 9.00038C17.9512 13.9448 13.9431 17.953 8.99872 17.953C4.05432 17.953 0.0461426 13.9448 0.0461426 9.00038C0.0461426 4.05603 4.05432 0.0478516 8.99872 0.0478516C13.943 0.0478516 17.9512 4.05603 17.9512 9.00038Z" fill="#D69331"/>
<path d="M8.27205 10.9582H11.169V12.3998H9.38524C9.41427 12.8124 9.43023 13.1947 9.45926 13.6058H7.95856V12.4142H6.17484C6.17484 11.9428 6.11533 11.4728 6.20387 11.0315C6.24886 10.7958 6.51591 10.5902 6.67991 10.3847C7.24449 9.7221 7.80907 9.07531 8.38816 8.4127C8.61167 8.16261 8.83373 7.92688 9.08626 7.64804H6.30836V6.2064H7.95711V5.00049H9.3983V6.17766H11.1965C11.1965 6.66347 11.256 7.13348 11.1675 7.57618C11.1225 7.8119 10.8555 8.01744 10.677 8.22297C10.1124 8.88558 9.54779 9.53238 8.9687 10.195C8.7481 10.458 8.52604 10.6923 8.27205 10.9582Z" fill="#D69331"/>
</svg>
