<svg width="16" height="16" viewBox="0 0 16 16" fill="none" xmlns="http://www.w3.org/2000/svg">
<g id="vuesax/bold/notification">
<g id="notification">
<path id="Vector" d="M12.8926 9.65998L12.226 8.55331C12.086 8.30665 11.9593 7.83998 11.9593 7.56665V5.87998C11.9593 4.31331 11.0393 2.95998 9.71264 2.32665C9.36598 1.71331 8.72598 1.33331 7.99264 1.33331C7.26598 1.33331 6.61264 1.72665 6.26598 2.34665C4.96598 2.99331 4.06598 4.33331 4.06598 5.87998V7.56665C4.06598 7.83998 3.93931 8.30665 3.79931 8.54665L3.12598 9.65998C2.85931 10.1066 2.79931 10.6 2.96598 11.0533C3.12598 11.5 3.50598 11.8466 3.99931 12.0133C5.29264 12.4533 6.65264 12.6666 8.01264 12.6666C9.37264 12.6666 10.7326 12.4533 12.026 12.02C12.4926 11.8666 12.8526 11.5133 13.026 11.0533C13.1993 10.5933 13.1526 10.0866 12.8926 9.65998Z" fill="#212121"/>
<path id="Vector_2" d="M9.88581 13.34C9.60581 14.1133 8.86581 14.6666 7.99914 14.6666C7.47247 14.6666 6.95247 14.4533 6.58581 14.0733C6.37247 13.8733 6.21247 13.6066 6.11914 13.3333C6.20581 13.3466 6.29247 13.3533 6.38581 13.3666C6.53914 13.3866 6.69914 13.4066 6.85914 13.42C7.23914 13.4533 7.62581 13.4733 8.01247 13.4733C8.39247 13.4733 8.77247 13.4533 9.14581 13.42C9.28581 13.4066 9.42581 13.4 9.55914 13.38C9.66581 13.3666 9.77247 13.3533 9.88581 13.34Z" fill="#212121"/>
</g>
</g>
</svg>
