<svg width="20" height="20" viewBox="0 0 20 20" fill="none" xmlns="http://www.w3.org/2000/svg">
<g id="vuesax/bold/bag">
<g id="bag">
<path id="Vector" d="M16.0346 4.65046H15.7013L12.8846 1.83379C12.6596 1.60879 12.293 1.60879 12.0596 1.83379C11.8346 2.05879 11.8346 2.42546 12.0596 2.65879L14.0513 4.65046H5.9513L7.94297 2.65879C8.16797 2.43379 8.16797 2.06712 7.94297 1.83379C7.71797 1.60879 7.3513 1.60879 7.11797 1.83379L4.30963 4.65046H3.9763C3.2263 4.65046 1.66797 4.65046 1.66797 6.78379C1.66797 7.59212 1.83464 8.12546 2.18464 8.47546C2.38464 8.68379 2.6263 8.79212 2.88464 8.85046C3.1263 8.90879 3.38464 8.91712 3.63464 8.91712H16.368C16.6263 8.91712 16.868 8.90045 17.1013 8.85046C17.8013 8.68379 18.3346 8.18379 18.3346 6.78379C18.3346 4.65046 16.7763 4.65046 16.0346 4.65046Z" fill="white"/>
<path id="Vector_2" d="M15.8746 10H4.05789C3.54123 10 3.14956 10.4583 3.23289 10.9667L3.93289 15.25C4.16623 16.6833 4.79123 18.3333 7.56623 18.3333H12.2412C15.0496 18.3333 15.5496 16.925 15.8496 15.35L16.6912 10.9917C16.7912 10.475 16.3996 10 15.8746 10ZM8.84123 15.375C8.84123 15.7 8.58289 15.9583 8.26623 15.9583C7.94123 15.9583 7.68289 15.7 7.68289 15.375V12.625C7.68289 12.3083 7.94123 12.0417 8.26623 12.0417C8.58289 12.0417 8.84123 12.3083 8.84123 12.625V15.375ZM12.4079 15.375C12.4079 15.7 12.1496 15.9583 11.8246 15.9583C11.5079 15.9583 11.2412 15.7 11.2412 15.375V12.625C11.2412 12.3083 11.5079 12.0417 11.8246 12.0417C12.1496 12.0417 12.4079 12.3083 12.4079 12.625V15.375Z" fill="white"/>
</g>
</g>
</svg>
