<svg width="16" height="16" viewBox="0 0 16 16" fill="none" xmlns="http://www.w3.org/2000/svg">
<g id="vuesax/bold/notification">
<g id="notification">
<path id="Vector" d="M12.8936 9.66016L12.227 8.5535C12.087 8.30683 11.9603 7.84016 11.9603 7.56683V5.88016C11.9603 4.3135 11.0403 2.96016 9.71362 2.32683C9.36695 1.7135 8.72695 1.3335 7.99362 1.3335C7.26695 1.3335 6.61362 1.72683 6.26695 2.34683C4.96695 2.9935 4.06695 4.3335 4.06695 5.88016V7.56683C4.06695 7.84016 3.94029 8.30683 3.80029 8.54683L3.12695 9.66016C2.86029 10.1068 2.80029 10.6002 2.96695 11.0535C3.12695 11.5002 3.50695 11.8468 4.00029 12.0135C5.29362 12.4535 6.65362 12.6668 8.01362 12.6668C9.37362 12.6668 10.7336 12.4535 12.027 12.0202C12.4936 11.8668 12.8536 11.5135 13.027 11.0535C13.2003 10.5935 13.1536 10.0868 12.8936 9.66016Z" fill="white"/>
<path id="Vector_2" d="M9.88678 13.3402C9.60678 14.1135 8.86678 14.6668 8.00012 14.6668C7.47345 14.6668 6.95345 14.4535 6.58678 14.0735C6.37345 13.8735 6.21345 13.6068 6.12012 13.3335C6.20678 13.3468 6.29345 13.3535 6.38678 13.3668C6.54012 13.3868 6.70012 13.4068 6.86012 13.4202C7.24012 13.4535 7.62678 13.4735 8.01345 13.4735C8.39345 13.4735 8.77345 13.4535 9.14678 13.4202C9.28678 13.4068 9.42678 13.4002 9.56012 13.3802C9.66678 13.3668 9.77345 13.3535 9.88678 13.3402Z" fill="white"/>
</g>
</g>
</svg>
