<svg width="16" height="16" viewBox="0 0 16 16" fill="none" xmlns="http://www.w3.org/2000/svg">
<g id="vuesax/bold/celo-(celo)">
<g id="celo-(celo)">
<path id="Vector" d="M5.99967 14.6668C8.577 14.6668 10.6663 12.5775 10.6663 10.0002C10.6663 7.42283 8.577 5.3335 5.99967 5.3335C3.42235 5.3335 1.33301 7.42283 1.33301 10.0002C1.33301 12.5775 3.42235 14.6668 5.99967 14.6668Z" fill="#212121"/>
<path id="Vector_2" d="M14.6669 6.00016C14.6669 7.82683 13.6202 9.40683 12.0936 10.1668C11.8869 10.2735 11.6536 10.1068 11.6336 9.88017C11.4069 6.9135 9.06688 4.5935 6.12021 4.36683C5.88688 4.34683 5.72688 4.1135 5.83355 3.90683C6.59355 2.38016 8.17355 1.3335 10.0002 1.3335C12.5802 1.3335 14.6669 3.42016 14.6669 6.00016Z" fill="#212121"/>
</g>
</g>
</svg>
