<svg width="36" height="36" viewBox="0 0 36 36" fill="none" xmlns="http://www.w3.org/2000/svg">
<g id="Group 956">
<rect id="Rectangle 1330" width="36" height="36" rx="6" fill="#BBA025" fill-opacity="0.18"/>
<path id="Combined Shape" fill-rule="evenodd" clip-rule="evenodd" d="M17.467 7.875H10.8116V16.7148H6.75V19.6612H10.8116V28.5H17.467C20.9799 28.5 21.7368 28.1321 23.2507 27.3963C23.3682 27.3392 23.4903 27.2799 23.6186 27.2183C25.3995 26.3638 26.7834 25.1607 27.7706 23.6089C28.7577 22.0571 29.2512 20.25 29.2512 18.1875C29.2512 16.125 28.7577 14.3179 27.7706 12.7661C26.7834 11.2143 25.3995 10.0112 23.6186 9.1567C21.8377 8.30223 19.7872 7.875 17.467 7.875ZM15.7556 19.6612V24.5809H17.221C19.358 24.5809 21.0626 24.0064 22.3346 22.8573C23.6067 21.7081 24.2427 20.1515 24.2427 18.1872C24.2427 16.2229 23.6067 14.6662 22.3346 13.5171C21.0626 12.368 19.358 11.7934 17.221 11.7934H15.7556V16.7148H20.4881V19.6612H15.7556Z" fill="#BBA025"/>
</g>
</svg>
