<svg width="13" height="12" viewBox="0 0 13 12" fill="none" xmlns="http://www.w3.org/2000/svg">
<path d="M1.43915 11.2461C1.18356 11.2461 0.927964 11.1519 0.72618 10.9501C0.336065 10.56 0.336065 9.91433 0.72618 9.52421L9.53739 0.712997C9.92751 0.322881 10.5732 0.322881 10.9633 0.712997C11.3534 1.10311 11.3534 1.74882 10.9633 2.13893L2.15212 10.9501C1.95033 11.1519 1.69474 11.2461 1.43915 11.2461Z" fill="white"/>
<path d="M1.99095 0C0.901316 0 0 0.887864 0 1.99095C0 3.08058 0.887864 3.98186 1.99095 3.98186C3.08058 3.98186 3.98186 3.09403 3.98186 1.99095C3.96841 0.887864 3.08058 0 1.99095 0Z" fill="white"/>
<path d="M10.7858 7.70825C9.6962 7.70825 8.79492 8.59607 8.79492 9.69916C8.79492 10.7888 9.68274 11.6901 10.7858 11.6901C11.8755 11.6901 12.7768 10.8022 12.7768 9.69916C12.7768 8.59607 11.8889 7.70825 10.7858 7.70825Z" fill="white"/>
</svg>
