<svg width="20" height="20" viewBox="0 0 20 20" fill="none" xmlns="http://www.w3.org/2000/svg">
<g id="vuesax/bold/share">
<g id="share">
<path id="Vector" d="M16.9666 10.6086C16.6582 10.6086 16.3999 10.3753 16.3666 10.067C16.1666 8.23364 15.1832 6.58364 13.6666 5.53364C13.3916 5.34197 13.3249 4.96697 13.5166 4.69197C13.7082 4.41697 14.0832 4.3503 14.3582 4.54197C16.1666 5.8003 17.3332 7.76697 17.5749 9.94197C17.6082 10.2753 17.3666 10.5753 17.0332 10.6086C17.0082 10.6086 16.9916 10.6086 16.9666 10.6086Z" fill="white"/>
<path id="Vector_2" d="M3.11674 10.6502C3.10008 10.6502 3.07508 10.6502 3.05841 10.6502C2.72508 10.6168 2.48341 10.3168 2.51674 9.9835C2.74174 7.8085 3.89174 5.84183 5.68341 4.57517C5.95008 4.3835 6.33341 4.45017 6.52508 4.71683C6.71674 4.99183 6.65008 5.36683 6.38341 5.5585C4.88341 6.62517 3.90841 8.27517 3.72508 10.1002C3.69174 10.4168 3.42508 10.6502 3.11674 10.6502Z" fill="white"/>
<path id="Vector_3" d="M13.3248 17.583C12.2998 18.0746 11.1998 18.3246 10.0498 18.3246C8.84984 18.3246 7.70817 18.058 6.64151 17.5163C6.34151 17.3746 6.22484 17.008 6.37484 16.708C6.51651 16.408 6.88317 16.2913 7.18317 16.433C7.70817 16.6996 8.26651 16.883 8.83317 16.9913C9.59984 17.1413 10.3832 17.1496 11.1498 17.0163C11.7165 16.9163 12.2748 16.7413 12.7915 16.4913C13.0998 16.3496 13.4665 16.4663 13.5998 16.7746C13.7498 17.0746 13.6332 17.4413 13.3248 17.583Z" fill="white"/>
<path id="Vector_4" d="M10.0424 1.6748C8.75072 1.6748 7.69238 2.7248 7.69238 4.0248C7.69238 5.3248 8.74238 6.3748 10.0424 6.3748C11.3424 6.3748 12.3924 5.3248 12.3924 4.0248C12.3924 2.7248 11.3424 1.6748 10.0424 1.6748Z" fill="white"/>
<path id="Vector_5" d="M4.2084 11.5586C2.91673 11.5586 1.8584 12.6086 1.8584 13.9086C1.8584 15.2086 2.9084 16.2586 4.2084 16.2586C5.5084 16.2586 6.5584 15.2086 6.5584 13.9086C6.5584 12.6086 5.50007 11.5586 4.2084 11.5586Z" fill="white"/>
<path id="Vector_6" d="M15.7914 11.5586C14.4997 11.5586 13.4414 12.6086 13.4414 13.9086C13.4414 15.2086 14.4914 16.2586 15.7914 16.2586C17.0914 16.2586 18.1414 15.2086 18.1414 13.9086C18.1414 12.6086 17.0914 11.5586 15.7914 11.5586Z" fill="white"/>
</g>
</g>
</svg>
