<svg width="36" height="36" viewBox="0 0 36 36" fill="none" xmlns="http://www.w3.org/2000/svg">
<rect width="36" height="36" rx="6" fill="#212121" fill-opacity="0.1"/>
<path fill-rule="evenodd" clip-rule="evenodd" d="M16.457 6.75C17.7564 6.75 19.051 6.75 20.3503 6.75C20.2739 7.62898 20.1927 8.51274 20.121 9.39172C21.6354 9.50159 23.1115 9.98885 24.4395 10.7102C23.8662 12.1529 23.2882 13.5955 22.7102 15.0382C21.5924 14.0876 20.121 13.5621 18.6545 13.5812C18.2866 13.5908 17.9045 13.6624 17.5987 13.8726C17.3981 14.0111 17.25 14.2261 17.207 14.465C17.1736 14.6561 17.1831 14.871 17.2882 15.043C17.4076 15.2341 17.6178 15.3487 17.828 15.4204C18.258 15.5732 18.7213 15.5828 19.1704 15.6306C20.2261 15.7596 21.2866 15.9411 22.285 16.3185C23.0589 16.6146 23.7994 17.0589 24.3296 17.7086C24.8312 18.3057 25.1226 19.0605 25.2325 19.8344C25.3615 20.7277 25.3232 21.6545 25.0462 22.5239C24.8312 23.2213 24.4634 23.871 23.9857 24.4204C22.9968 25.5669 21.5446 26.2548 20.0541 26.4315C20.1019 27.3726 20.1592 28.3089 20.2118 29.25C18.9793 29.25 17.7516 29.25 16.5239 29.25C16.5717 28.3185 16.6338 27.3869 16.6768 26.4554C15.6879 26.422 14.7086 26.2022 13.7866 25.8535C12.8933 25.5143 12.043 25.0653 11.25 24.5398C11.8328 23.0398 12.4156 21.5398 13.0032 20.035C13.6672 20.5939 14.3742 21.1146 15.1481 21.5111C15.9793 21.9363 16.9013 22.2086 17.8376 22.2182C18.2818 22.2229 18.7404 22.199 19.1608 22.0462C19.4188 21.9506 19.672 21.7834 19.7866 21.5207C19.9061 21.2436 19.8965 20.8949 19.715 20.6465C19.586 20.4793 19.4045 20.3646 19.2134 20.2834C18.9554 20.1783 18.6879 20.121 18.4156 20.078C17.4124 19.9156 16.4045 19.7818 15.4347 19.4666C14.6561 19.2134 13.8965 18.8599 13.2755 18.3153C12.8838 17.9761 12.5589 17.5605 12.3296 17.0924C11.9857 16.3949 11.8567 15.6067 11.8662 14.8328C11.8662 13.9682 12.043 13.0892 12.4729 12.3296C12.8455 11.6513 13.414 11.0971 14.0541 10.672C14.828 10.1608 15.6927 9.8121 16.5717 9.53025C16.5334 8.6035 16.4952 7.67675 16.457 6.75Z" fill="#212121"/>
</svg>
