<svg width="36" height="36" viewBox="0 0 36 36" fill="none" xmlns="http://www.w3.org/2000/svg">
<rect width="36" height="36" rx="6" fill="#1BA27A" fill-opacity="0.18"/>
<path d="M15.6677 16.5044V11.9058H9.43066V7.875H26.8594V11.9626H20.6224V16.5044H15.6677Z" fill="#1BA27A"/>
<path fill-rule="evenodd" clip-rule="evenodd" d="M6.75 17.0157C6.75 15.4829 11.763 14.2339 18 14.2339C24.237 14.2339 29.25 15.4829 29.25 17.0157C29.25 18.5486 24.237 19.7976 18 19.7976C11.763 19.7976 6.75 18.5486 6.75 17.0157ZM28.3189 17.0159C27.9108 16.4482 24.53 14.6883 18.0015 14.6883C11.473 14.6883 8.09218 16.3914 7.68415 17.0159C8.09218 17.5837 11.473 18.4352 18.0015 18.4352C24.5883 18.4352 27.9108 17.5837 28.3189 17.0159Z" fill="#1BA27A"/>
<path d="M20.621 17.9251V14.7459C19.8049 14.6891 18.9306 14.6323 18.0562 14.6323C17.2402 14.6323 16.4824 14.6323 15.7246 14.6891V17.8683C16.4241 17.8683 17.2402 17.9251 18.0562 17.9251C18.9306 17.9819 19.8049 17.9819 20.621 17.9251Z" fill="#1BA27A"/>
<path d="M17.9976 19.7981C17.1816 19.7981 16.4238 19.7981 15.666 19.7413V28.2004H20.5624V19.6846C19.7463 19.7413 18.872 19.7981 17.9976 19.7981Z" fill="#1BA27A"/>
</svg>
