<svg width="16" height="16" viewBox="0 0 16 16" fill="none" xmlns="http://www.w3.org/2000/svg">
<g id="vuesax/bold/clock">
<g id="clock">
<path id="Vector" d="M8.00065 1.3335C4.32732 1.3335 1.33398 4.32683 1.33398 8.00016C1.33398 11.6735 4.32732 14.6668 8.00065 14.6668C11.674 14.6668 14.6673 11.6735 14.6673 8.00016C14.6673 4.32683 11.674 1.3335 8.00065 1.3335ZM10.9007 10.3802C10.8073 10.5402 10.6407 10.6268 10.4673 10.6268C10.3807 10.6268 10.294 10.6068 10.214 10.5535L8.14732 9.32016C7.63398 9.0135 7.25398 8.34016 7.25398 7.74683V5.0135C7.25398 4.74016 7.48065 4.5135 7.75398 4.5135C8.02732 4.5135 8.25398 4.74016 8.25398 5.0135V7.74683C8.25398 7.98683 8.45398 8.34016 8.66065 8.46016L10.7273 9.6935C10.9673 9.8335 11.0473 10.1402 10.9007 10.3802Z" fill="#292D32"/>
</g>
</g>
</svg>
