<svg width="18" height="18" viewBox="0 0 18 18" fill="none" xmlns="http://www.w3.org/2000/svg">
<rect width="17.998" height="18" rx="4" fill="#212121"/>
<path d="M7.36074 14.4537C9.46923 14.4537 11.1785 12.7443 11.1785 10.6356C11.1785 8.52684 9.46923 6.81738 7.36074 6.81738C5.25224 6.81738 3.54297 8.52684 3.54297 10.6356C3.54297 12.7443 5.25224 14.4537 7.36074 14.4537Z" fill="white"/>
<path d="M14.4514 7.36262C14.4514 8.85716 13.5951 10.1499 12.3461 10.7717C12.1771 10.859 11.9862 10.7226 11.9698 10.5372C11.7844 8.10989 9.87004 6.21171 7.45939 6.02625C7.2685 6.00989 7.13761 5.81898 7.22487 5.64989C7.84662 4.4008 9.13921 3.54443 10.6336 3.54443C12.7443 3.54443 14.4514 5.25171 14.4514 7.36262Z" fill="white"/>
</svg>
