<svg width="20" height="20" viewBox="0 0 20 20" fill="none" xmlns="http://www.w3.org/2000/svg">
<g id="vuesax/linear/direct-inbox">
<g id="direct-inbox">
<path id="Vector" d="M10 1.6665V7.49984L11.6667 5.83317" stroke="#72838C" stroke-linecap="round" stroke-linejoin="round"/>
<path id="Vector_2" d="M10.0007 7.50016L8.33398 5.8335" stroke="#72838C" stroke-linecap="round" stroke-linejoin="round"/>
<path id="Vector_3" d="M1.65039 10.8335H5.32539C5.64206 10.8335 5.92539 11.0085 6.06706 11.2918L7.04206 13.2418C7.32539 13.8085 7.90039 14.1668 8.53372 14.1668H11.4754C12.1087 14.1668 12.6837 13.8085 12.9671 13.2418L13.9421 11.2918C14.0837 11.0085 14.3754 10.8335 14.6837 10.8335H18.3171" stroke="#72838C" stroke-linecap="round" stroke-linejoin="round"/>
<path id="Vector_4" d="M5.83268 3.44141C2.88268 3.87474 1.66602 5.60807 1.66602 9.16641V12.4997C1.66602 16.6664 3.33268 18.3331 7.49935 18.3331H12.4993C16.666 18.3331 18.3327 16.6664 18.3327 12.4997V9.16641C18.3327 5.60807 17.116 3.87474 14.166 3.44141" stroke="#72838C" stroke-linecap="round" stroke-linejoin="round"/>
</g>
</g>
</svg>
