<svg width="190" height="36" viewBox="0 0 190 36" fill="none" xmlns="http://www.w3.org/2000/svg">
<g id="Group 1086">
<rect id="Rectangle 1007" width="190" height="36" fill="#ECECEC"/>
<g id="vuesax/linear/gallery">
<g id="gallery">
<path id="Vector" d="M92.4993 26.3332H97.4993C101.666 26.3332 103.333 24.6665 103.333 20.4998V15.4998C103.333 11.3332 101.666 9.6665 97.4993 9.6665H92.4993C88.3327 9.6665 86.666 11.3332 86.666 15.4998V20.4998C86.666 24.6665 88.3327 26.3332 92.4993 26.3332Z" stroke="#292D32" stroke-width="1.5" stroke-linecap="round" stroke-linejoin="round"/>
<path id="Vector_2" d="M92.5007 16.3333C93.4211 16.3333 94.1673 15.5871 94.1673 14.6667C94.1673 13.7462 93.4211 13 92.5007 13C91.5802 13 90.834 13.7462 90.834 14.6667C90.834 15.5871 91.5802 16.3333 92.5007 16.3333Z" stroke="#292D32" stroke-width="1.5" stroke-linecap="round" stroke-linejoin="round"/>
<path id="Vector_3" d="M87.2246 23.7913L91.3329 21.033C91.9913 20.5913 92.9413 20.6413 93.5329 21.1496L93.8079 21.3913C94.4579 21.9496 95.5079 21.9496 96.1579 21.3913L99.6246 18.4163C100.275 17.858 101.325 17.858 101.975 18.4163L103.333 19.583" stroke="#292D32" stroke-width="1.5" stroke-linecap="round" stroke-linejoin="round"/>
</g>
</g>
</g>
</svg>
