<svg width="18" height="18" viewBox="0 0 18 18" fill="none" xmlns="http://www.w3.org/2000/svg">
<rect width="18" height="18" rx="4" fill="#212121"/>
<path d="M13.271 7.19838L10.8001 4.72748C10.2819 4.20929 9.56735 3.93111 8.83644 3.96929L6.10917 4.1002C5.01826 4.14929 4.15098 5.01657 4.09644 6.10202L3.96553 8.82929C3.9328 9.5602 4.20553 10.2747 4.72371 10.7929L7.19462 13.2638C8.20917 14.2784 9.85644 14.2784 10.8764 13.2638L13.271 10.8693C14.291 9.8602 14.291 8.21293 13.271 7.19838ZM7.63644 9.20566C6.76917 9.20566 6.06553 8.50202 6.06553 7.63475C6.06553 6.76747 6.76917 6.06384 7.63644 6.06384C8.50371 6.06384 9.20735 6.76747 9.20735 7.63475C9.20735 8.50202 8.50371 9.20566 7.63644 9.20566Z" fill="white"/>
</svg>
