<svg width="24" height="24" viewBox="0 0 24 24" fill="none" xmlns="http://www.w3.org/2000/svg">
<g id="Group 977">
<rect id="Rectangle 1332" width="24" height="24" rx="6" fill="#F7931A" fill-opacity="0.18"/>
<path id="Shape" fill-rule="evenodd" clip-rule="evenodd" d="M16.9221 10.677C17.1339 9.25853 16.0539 8.496 14.5772 7.98731L15.0562 6.06583L13.8863 5.77434L13.4199 7.64519C13.1127 7.56857 12.7969 7.49628 12.4831 7.42466L12.9528 5.54149L11.7839 5.25L11.3045 7.17081C11.05 7.11285 10.8002 7.05555 10.5576 6.99526L10.559 6.98926L8.94598 6.58651L8.63484 7.83574C8.63484 7.83574 9.50263 8.03461 9.48431 8.04694C9.95802 8.1652 10.044 8.47867 10.0293 8.72719L9.48365 10.9162C9.51629 10.9245 9.5586 10.9365 9.60524 10.9551L9.48198 10.9245L8.71679 13.9909C8.65882 14.1348 8.51191 14.3507 8.18078 14.2688C8.19244 14.2858 7.33064 14.0566 7.33064 14.0566L6.75 15.3957L8.27239 15.7752C8.44422 15.8182 8.61397 15.8625 8.78185 15.9063L8.78195 15.9063C8.89069 15.9347 8.99864 15.9629 9.10588 15.9904L8.62184 17.9342L9.79012 18.2257L10.2698 16.3028C10.5886 16.3895 10.8984 16.4694 11.2016 16.5447L10.7239 18.4585L11.8935 18.75L12.3775 16.8102C14.372 17.1876 15.872 17.0354 16.5026 15.2318C17.0113 13.7794 16.4777 12.9416 15.4283 12.3949C16.1925 12.218 16.7681 11.7153 16.9217 10.677H16.9221ZM14.2489 14.4241C13.9169 15.7572 11.8299 15.2056 10.8758 14.9535L10.8756 14.9534C10.7903 14.9309 10.714 14.9107 10.6488 14.8945L11.2911 12.3198C11.3708 12.3397 11.4681 12.3615 11.5784 12.3862L11.5784 12.3863C12.5654 12.6077 14.5882 13.0616 14.2493 14.4241H14.2489ZM11.7774 11.191C12.5734 11.4034 14.3087 11.8663 14.611 10.6553C14.92 9.41645 13.2327 9.04305 12.4086 8.86069C12.316 8.84019 12.2342 8.8221 12.1675 8.80547L11.5852 11.1407C11.6403 11.1544 11.7049 11.1717 11.7774 11.191Z" fill="#F7931A"/>
</g>
</svg>
