<svg width="24" height="24" viewBox="0 0 24 24" fill="none" xmlns="http://www.w3.org/2000/svg">
<g id="Group 971">
<rect id="Rectangle 1330" width="24" height="24" rx="6" fill="#BBA025" fill-opacity="0.18"/>
<path id="Combined Shape" fill-rule="evenodd" clip-rule="evenodd" d="M11.6451 5.25H7.2082V11.1432H4.5V13.1075H7.2082V19H11.6451C13.987 19 14.4917 18.7547 15.5009 18.2642C15.5793 18.2261 15.6607 18.1866 15.7462 18.1455C16.9334 17.5759 17.8561 16.7738 18.5142 15.7393C19.1722 14.7048 19.5013 13.5 19.5013 12.125C19.5013 10.75 19.1722 9.54524 18.5142 8.51071C17.8561 7.47619 16.9334 6.67411 15.7462 6.10446C14.5589 5.53482 13.1919 5.25 11.6451 5.25ZM10.5037 13.1075V16.3873H11.4806C12.9053 16.3873 14.0417 16.0042 14.8897 15.2381C15.7378 14.4721 16.1618 13.4343 16.1618 12.1248C16.1618 10.8152 15.7378 9.77744 14.8897 9.01136C14.0417 8.24529 12.9053 7.86226 11.4806 7.86226H10.5037V11.1432H13.6588V13.1075H10.5037Z" fill="#BBA025"/>
</g>
</svg>
