<svg width="16" height="16" viewBox="0 0 16 16" fill="none" xmlns="http://www.w3.org/2000/svg">
<g id="vuesax/bold/dollar-square">
<g id="dollar-square">
<path id="Vector" d="M7.50125 5.38542V7.29209L6.82792 7.05876C6.48792 6.93876 6.28125 6.82542 6.28125 6.24542C6.28125 5.77209 6.63458 5.38542 7.06792 5.38542H7.50125Z" fill="#292D32"/>
<path id="Vector_2" d="M9.72 9.75338C9.72 10.2267 9.36667 10.6134 8.93333 10.6134H8.5V8.70671L9.17333 8.94004C9.51333 9.06004 9.72 9.17338 9.72 9.75338Z" fill="#292D32"/>
<path id="Vector_3" d="M10.7935 1.33333H5.20683C2.78016 1.33333 1.3335 2.77999 1.3335 5.20666V10.7933C1.3335 13.22 2.78016 14.6667 5.20683 14.6667H10.7935C13.2202 14.6667 14.6668 13.22 14.6668 10.7933V5.20666C14.6668 2.77999 13.2202 1.33333 10.7935 1.33333ZM9.50683 7.99999C10.0268 8.17999 10.7202 8.55999 10.7202 9.75333C10.7202 10.78 9.92016 11.6133 8.9335 11.6133H8.50016V12C8.50016 12.2733 8.2735 12.5 8.00016 12.5C7.72683 12.5 7.50016 12.2733 7.50016 12V11.6133H7.26016C6.16683 11.6133 5.28016 10.6867 5.28016 9.55333C5.28016 9.27999 5.50016 9.05333 5.78016 9.05333C6.0535 9.05333 6.28016 9.27999 6.28016 9.55333C6.28016 10.14 6.72016 10.6133 7.26016 10.6133H7.50016V8.35333L6.4935 7.99999C5.9735 7.81999 5.28016 7.43999 5.28016 6.24666C5.28016 5.21999 6.08016 4.38666 7.06683 4.38666H7.50016V3.99999C7.50016 3.72666 7.72683 3.49999 8.00016 3.49999C8.2735 3.49999 8.50016 3.72666 8.50016 3.99999V4.38666H8.74016C9.8335 4.38666 10.7202 5.31333 10.7202 6.44666C10.7202 6.71999 10.5002 6.94666 10.2202 6.94666C9.94683 6.94666 9.72016 6.71999 9.72016 6.44666C9.72016 5.85999 9.28016 5.38666 8.74016 5.38666H8.50016V7.64666L9.50683 7.99999Z" fill="#292D32"/>
</g>
</g>
</svg>
