<svg width="24" height="24" viewBox="0 0 24 24" fill="none" xmlns="http://www.w3.org/2000/svg">
<g id="Group 972">
<rect id="Rectangle 1334" width="24" height="24" rx="6" fill="#1BA27A" fill-opacity="0.18"/>
<g id="Group 2">
<path id="Shape" d="M10.4461 11.0029V7.93722H6.28809V5.25H17.9073V7.97506H13.7492V11.0029H10.4461Z" fill="#1BA27A"/>
<path id="Shape_2" fill-rule="evenodd" clip-rule="evenodd" d="M4.5 11.3437C4.5 10.3218 7.84197 9.48914 12 9.48914C16.158 9.48914 19.5 10.3218 19.5 11.3437C19.5 12.3656 16.158 13.1983 12 13.1983C7.84197 13.1983 4.5 12.3656 4.5 11.3437ZM18.8787 11.3439C18.6067 10.9655 16.3528 9.79216 12.0005 9.79216C7.64817 9.79216 5.39429 10.9276 5.12227 11.3439C5.39429 11.7224 7.64817 12.2901 12.0005 12.2901C16.3917 12.2901 18.6067 11.7224 18.8787 11.3439Z" fill="#1BA27A"/>
<g id="Group">
<path id="Shape_3" d="M13.7467 11.9501V9.83058C13.2026 9.79273 12.6197 9.75488 12.0368 9.75488C11.4928 9.75488 10.9876 9.75488 10.4824 9.79273V11.9122C10.9487 11.9122 11.4928 11.9501 12.0368 11.9501C12.6197 11.9879 13.2026 11.9879 13.7467 11.9501Z" fill="#1BA27A"/>
<path id="Shape_4" d="M11.9983 13.1987C11.4542 13.1987 10.949 13.1987 10.4438 13.1609V18.8003H13.7081V13.123C13.1641 13.1609 12.5812 13.1987 11.9983 13.1987Z" fill="#1BA27A"/>
</g>
</g>
</g>
</svg>
