<svg width="20" height="20" viewBox="0 0 20 20" fill="none" xmlns="http://www.w3.org/2000/svg">
<g id="vuesax/bold/ticket">
<g id="ticket">
<path id="Vector" d="M18.3327 8.95813C18.6743 8.95813 18.9577 8.6748 18.9577 8.33313V7.4998C18.9577 3.8248 17.841 2.70813 14.166 2.70813H8.95768V4.58313C8.95768 4.9248 8.67435 5.20813 8.33268 5.20813C7.99101 5.20813 7.70768 4.9248 7.70768 4.58313V2.70813H5.83268C2.15768 2.70813 1.04102 3.8248 1.04102 7.4998V7.91646C1.04102 8.25813 1.32435 8.54146 1.66602 8.54146C2.46602 8.54146 3.12435 9.1998 3.12435 9.9998C3.12435 10.7998 2.46602 11.4581 1.66602 11.4581C1.32435 11.4581 1.04102 11.7415 1.04102 12.0831V12.4998C1.04102 16.1748 2.15768 17.2915 5.83268 17.2915H7.70768V15.4165C7.70768 15.0748 7.99101 14.7915 8.33268 14.7915C8.67435 14.7915 8.95768 15.0748 8.95768 15.4165V17.2915H14.166C17.841 17.2915 18.9577 16.1748 18.9577 12.4998C18.9577 12.1581 18.6743 11.8748 18.3327 11.8748C17.5327 11.8748 16.8743 11.2165 16.8743 10.4165C16.8743 9.61646 17.5327 8.95813 18.3327 8.95813ZM8.95768 11.8081C8.95768 12.1498 8.67435 12.4331 8.33268 12.4331C7.99101 12.4331 7.70768 12.1498 7.70768 11.8081V8.19146C7.70768 7.8498 7.99101 7.56646 8.33268 7.56646C8.67435 7.56646 8.95768 7.8498 8.95768 8.19146V11.8081Z" fill="white"/>
</g>
</g>
</svg>
